<svg width="754" height="792" viewBox="0 0 754 792" fill="none" xmlns="http://www.w3.org/2000/svg">
<path d="M101 454C101 449.582 104.582 446 109 446H644C648.418 446 652 449.582 652 454V457C652 461.418 648.418 465 644 465H109C104.582 465 101 461.418 101 457V454Z" fill="#D9D9D9"/>
<path d="M361.63 5.22037L14.4411 342.711C11.3907 345.676 11.1944 350.51 13.9944 353.713L379.702 772.021C382.916 775.698 388.647 775.662 391.814 771.944L747.955 353.921C750.764 350.625 750.439 345.691 747.223 342.791L372.563 5.015C369.433 2.19343 364.651 2.28326 361.63 5.22037Z" fill="#A6C8F0" stroke="#A6C8F0"/>
<rect x="70.6321" y="113.857" width="612" height="495" fill="white" stroke="#F7F9FE"/>
<path d="M101 262C101 257.582 104.582 254 109 254H644C648.418 254 652 257.582 652 262V276C652 280.418 648.418 284 644 284H109C104.582 284 101 280.418 101 276V262Z" fill="#D9D9D9" fill-opacity="0.55"/>
<path d="M101 339C101 334.582 104.582 331 109 331H644C648.418 331 652 334.582 652 339V353C652 357.418 648.418 361 644 361H109C104.582 361 101 357.418 101 353V339Z" fill="#D9D9D9" fill-opacity="0.55"/>
<path d="M101 411C101 406.582 104.582 403 109 403H644C648.418 403 652 406.582 652 411V425C652 429.418 648.418 433 644 433H109C104.582 433 101 429.418 101 425V411Z" fill="#D9D9D9" fill-opacity="0.55"/>
<path d="M101 486C101 481.582 104.582 478 109 478H644C648.418 478 652 481.582 652 486V500C652 504.418 648.418 508 644 508H109C104.582 508 101 504.418 101 500V486Z" fill="#D9D9D9" fill-opacity="0.55"/>
<path d="M740.135 330.857L394.207 595.894C391.411 598.036 387.543 598.097 384.681 596.045L252 500.932L13.6776 330.088C8.38085 326.291 1.00967 330.081 1.01661 336.599L1.49149 782.509C1.49619 786.923 5.0765 790.5 9.49146 790.5H745C749.418 790.5 753 786.918 753 782.5V337.207C753 330.577 745.398 326.825 740.135 330.857Z" fill="#D0E2FF" stroke="#D1E2FF"/>
<path d="M212.148 481.793L9.54369 778.489C5.91763 783.799 9.72027 791 16.1502 791H736.83C743.453 791 747.208 783.411 743.189 778.146L531.014 500.167C528.348 496.674 523.365 495.985 519.852 498.623L391.732 594.8C388.927 596.906 385.076 596.938 382.235 594.88L223.448 479.827C219.8 477.183 214.689 478.073 212.148 481.793Z" fill="#A6C8F0" stroke="#A6C8F0"/>
</svg>
