<svg width="517" height="513" viewBox="0 0 517 513" fill="none" xmlns="http://www.w3.org/2000/svg">
<path d="M113 145C113 114.072 138.072 89 169 89H461C491.928 89 517 114.072 517 145V326H113V145Z" fill="#D1E2FF"/>
<path d="M113 145C113 114.072 138.072 89 169 89H209C239.928 89 265 114.072 265 145V326H113V145Z" fill="#A6C8F0"/>
<rect y="314" width="265" height="12" fill="#D0E3FF"/>
<rect x="289.473" y="512.499" width="186.817" height="12" transform="rotate(-89.9879 289.473 512.499)" fill="#A6C8F0"/>
<path d="M199.126 0.884766L416.151 1.43896C447.079 1.51793 472.087 26.6539 472.008 57.5818L471.924 90.2142L218.9 89.568C207.854 89.5398 198.923 80.5627 198.951 69.517L199.126 0.884766Z" fill="white"/>
<path d="M87.3091 193C87.3148 190.791 89.1102 189.005 91.3193 189.01L265.11 189.454L264.79 314.588L86.9998 314.134L87.3091 193Z" fill="white"/>
<path d="M89 190L195.899 257.591C198.676 259.346 202.243 259.226 204.895 257.288L265.5 213" stroke="black" stroke-opacity="0.27"/>
</svg>
