<svg width="379" height="1269" viewBox="0 0 379 1269" fill="none" xmlns="http://www.w3.org/2000/svg">
<path d="M0 66C0 59.3726 5.37258 54 12 54H367C373.627 54 379 59.3726 379 66V305C379 311.627 373.627 317 367 317H12C5.37259 317 0 311.627 0 305V66Z" fill="#A6C8F0"/>
<path d="M0 342C0 335.373 5.37258 330 12 330H367C373.627 330 379 335.373 379 342V581C379 587.627 373.627 593 367 593H12C5.37259 593 0 587.627 0 581V342Z" fill="#A6C8F0"/>
<path d="M0 910C0 903.373 5.37258 898 12 898H367C373.627 898 379 903.373 379 910V1257C379 1263.63 373.627 1269 367 1269H12C5.37259 1269 0 1263.63 0 1257V910Z" fill="#A6C8F0"/>
<path d="M0 617C0 610.373 5.37258 605 12 605H367C373.627 605 379 610.373 379 617V872C379 878.627 373.627 884 367 884H12C5.37259 884 0 878.627 0 872V617Z" fill="#A7E5F1"/>
<path d="M41 939V923C41 922.47 40.7893 921.961 40.4142 921.586C40.0391 921.211 39.5304 921 39 921H35C34.4696 921 33.9609 921.211 33.5858 921.586C33.2107 921.961 33 922.47 33 923V939M29 925H45C46.1046 925 47 925.895 47 927V937C47 938.105 46.1046 939 45 939H29C27.8954 939 27 938.105 27 937V927C27 925.895 27.8954 925 29 925Z" stroke="black" stroke-width="2" stroke-linecap="round" stroke-linejoin="round"/>
<path d="M39 369V353C39 352.47 38.7893 351.961 38.4142 351.586C38.0391 351.211 37.5304 351 37 351H33C32.4696 351 31.9609 351.211 31.5858 351.586C31.2107 351.961 31 352.47 31 353V369M27 355H43C44.1046 355 45 355.895 45 357V367C45 368.105 44.1046 369 43 369H27C25.8954 369 25 368.105 25 367V357C25 355.895 25.8954 355 27 355Z" stroke="black" stroke-width="2" stroke-linecap="round" stroke-linejoin="round"/>
<path d="M37 93V77C37 76.4696 36.7893 75.9609 36.4142 75.5858C36.0391 75.2107 35.5304 75 35 75H31C30.4696 75 29.9609 75.2107 29.5858 75.5858C29.2107 75.9609 29 76.4696 29 77V93M25 79H41C42.1046 79 43 79.8954 43 81V91C43 92.1046 42.1046 93 41 93H25C23.8954 93 23 92.1046 23 91V81C23 79.8954 23.8954 79 25 79Z" stroke="black" stroke-width="2" stroke-linecap="round" stroke-linejoin="round"/>
<path d="M66.4347 92V77.4545H72.0028C73.054 77.4545 73.9276 77.6203 74.6236 77.9517C75.3243 78.2784 75.8475 78.7259 76.1932 79.294C76.5436 79.8622 76.7188 80.5062 76.7188 81.2259C76.7188 81.8177 76.6051 82.3243 76.3778 82.7457C76.1506 83.1624 75.8452 83.5009 75.4616 83.7614C75.0781 84.0218 74.6496 84.2088 74.1761 84.3224V84.4645C74.6922 84.4929 75.187 84.6515 75.6605 84.9403C76.1387 85.2244 76.5294 85.6269 76.8324 86.1477C77.1354 86.6686 77.2869 87.2983 77.2869 88.0369C77.2869 88.7898 77.1046 89.4669 76.7401 90.0682C76.3755 90.6648 75.8262 91.1359 75.0923 91.4815C74.3584 91.8272 73.4351 92 72.3224 92H66.4347ZM69.0696 89.7983H71.9034C72.8598 89.7983 73.5488 89.616 73.9702 89.2514C74.3963 88.8821 74.6094 88.4086 74.6094 87.831C74.6094 87.4001 74.5028 87.0118 74.2898 86.6662C74.0767 86.3158 73.7737 86.0412 73.3807 85.8423C72.9877 85.6387 72.5189 85.5369 71.9744 85.5369H69.0696V89.7983ZM69.0696 83.6406H71.6761C72.1307 83.6406 72.5402 83.5578 72.9048 83.392C73.2694 83.2216 73.5559 82.9825 73.7642 82.6747C73.9773 82.3622 74.0838 81.9929 74.0838 81.5668C74.0838 81.0033 73.8849 80.5393 73.4872 80.1747C73.0942 79.8101 72.5095 79.6278 71.733 79.6278H69.0696V83.6406ZM86.4187 87.4119V81.0909H88.9897V92H86.4968V90.0611H86.3832C86.137 90.6719 85.7321 91.1714 85.1687 91.5597C84.61 91.9479 83.921 92.142 83.1019 92.142C82.387 92.142 81.7549 91.9834 81.2056 91.6662C80.6611 91.3442 80.235 90.8778 79.9272 90.267C79.6194 89.6515 79.4656 88.9081 79.4656 88.0369V81.0909H82.0366V87.6392C82.0366 88.3305 82.226 88.8797 82.6048 89.2869C82.9835 89.6941 83.4807 89.8977 84.0962 89.8977C84.475 89.8977 84.842 89.8054 85.1971 89.6207C85.5522 89.4361 85.8434 89.1615 86.0707 88.7969C86.3027 88.4276 86.4187 87.9659 86.4187 87.4119ZM100.256 83.9744L97.9119 84.2301C97.8456 83.9934 97.7296 83.7708 97.5639 83.5625C97.4029 83.3542 97.1851 83.1861 96.9105 83.0582C96.6359 82.9304 96.2997 82.8665 95.902 82.8665C95.367 82.8665 94.9171 82.9825 94.5526 83.2145C94.1927 83.4465 94.0152 83.7472 94.0199 84.1165C94.0152 84.4337 94.1312 84.6918 94.3679 84.8906C94.6094 85.0895 95.0071 85.2528 95.5611 85.3807L97.4219 85.7784C98.4541 86.0009 99.2211 86.3537 99.723 86.8366C100.23 87.3196 100.485 87.9517 100.49 88.733C100.485 89.4195 100.284 90.0256 99.8864 90.5511C99.4934 91.072 98.9465 91.4792 98.2457 91.7727C97.545 92.0663 96.7401 92.2131 95.831 92.2131C94.4957 92.2131 93.4209 91.9337 92.6065 91.375C91.7921 90.8116 91.3068 90.0279 91.1506 89.0241L93.6577 88.7827C93.7713 89.2751 94.0128 89.6468 94.3821 89.8977C94.7514 90.1487 95.232 90.2741 95.8239 90.2741C96.4347 90.2741 96.9247 90.1487 97.294 89.8977C97.6681 89.6468 97.8551 89.3366 97.8551 88.9673C97.8551 88.6548 97.7344 88.3968 97.4929 88.1932C97.2562 87.9896 96.8868 87.8333 96.3849 87.7244L94.5241 87.3338C93.4777 87.116 92.7036 86.7491 92.2017 86.233C91.6998 85.7121 91.4512 85.054 91.456 84.2585C91.4512 83.5862 91.6335 83.0038 92.0028 82.5114C92.3769 82.0142 92.8954 81.6307 93.5582 81.3608C94.2259 81.0862 94.9953 80.9489 95.8665 80.9489C97.1449 80.9489 98.151 81.2211 98.8849 81.7656C99.6236 82.3101 100.08 83.0464 100.256 83.9744ZM104.208 96.0909C103.858 96.0909 103.533 96.0625 103.235 96.0057C102.942 95.9536 102.707 95.892 102.532 95.821L103.129 93.8182C103.503 93.9271 103.836 93.9792 104.13 93.9744C104.424 93.9697 104.682 93.8774 104.904 93.6974C105.131 93.5223 105.323 93.2287 105.479 92.8168L105.7 92.2273L101.744 81.0909H104.471L106.985 89.3295H107.099L109.62 81.0909H112.354L107.987 93.321C107.783 93.8987 107.513 94.3935 107.177 94.8054C106.841 95.2221 106.429 95.5393 105.941 95.7571C105.458 95.9796 104.88 96.0909 104.208 96.0909Z" fill="black"/>
<path d="M66.4347 367V352.455H72.0028C73.054 352.455 73.9276 352.62 74.6236 352.952C75.3243 353.278 75.8475 353.726 76.1932 354.294C76.5436 354.862 76.7188 355.506 76.7188 356.226C76.7188 356.818 76.6051 357.324 76.3778 357.746C76.1506 358.162 75.8452 358.501 75.4616 358.761C75.0781 359.022 74.6496 359.209 74.1761 359.322V359.464C74.6922 359.493 75.187 359.652 75.6605 359.94C76.1387 360.224 76.5294 360.627 76.8324 361.148C77.1354 361.669 77.2869 362.298 77.2869 363.037C77.2869 363.79 77.1046 364.467 76.7401 365.068C76.3755 365.665 75.8262 366.136 75.0923 366.482C74.3584 366.827 73.4351 367 72.3224 367H66.4347ZM69.0696 364.798H71.9034C72.8598 364.798 73.5488 364.616 73.9702 364.251C74.3963 363.882 74.6094 363.409 74.6094 362.831C74.6094 362.4 74.5028 362.012 74.2898 361.666C74.0767 361.316 73.7737 361.041 73.3807 360.842C72.9877 360.639 72.5189 360.537 71.9744 360.537H69.0696V364.798ZM69.0696 358.641H71.6761C72.1307 358.641 72.5402 358.558 72.9048 358.392C73.2694 358.222 73.5559 357.982 73.7642 357.675C73.9773 357.362 74.0838 356.993 74.0838 356.567C74.0838 356.003 73.8849 355.539 73.4872 355.175C73.0942 354.81 72.5095 354.628 71.733 354.628H69.0696V358.641ZM86.4187 362.412V356.091H88.9897V367H86.4968V365.061H86.3832C86.137 365.672 85.7321 366.171 85.1687 366.56C84.61 366.948 83.921 367.142 83.1019 367.142C82.387 367.142 81.7549 366.983 81.2056 366.666C80.6611 366.344 80.235 365.878 79.9272 365.267C79.6194 364.652 79.4656 363.908 79.4656 363.037V356.091H82.0366V362.639C82.0366 363.33 82.226 363.88 82.6048 364.287C82.9835 364.694 83.4807 364.898 84.0962 364.898C84.475 364.898 84.842 364.805 85.1971 364.621C85.5522 364.436 85.8434 364.161 86.0707 363.797C86.3027 363.428 86.4187 362.966 86.4187 362.412ZM100.256 358.974L97.9119 359.23C97.8456 358.993 97.7296 358.771 97.5639 358.562C97.4029 358.354 97.1851 358.186 96.9105 358.058C96.6359 357.93 96.2997 357.866 95.902 357.866C95.367 357.866 94.9171 357.982 94.5526 358.214C94.1927 358.446 94.0152 358.747 94.0199 359.116C94.0152 359.434 94.1312 359.692 94.3679 359.891C94.6094 360.089 95.0071 360.253 95.5611 360.381L97.4219 360.778C98.4541 361.001 99.2211 361.354 99.723 361.837C100.23 362.32 100.485 362.952 100.49 363.733C100.485 364.42 100.284 365.026 99.8864 365.551C99.4934 366.072 98.9465 366.479 98.2457 366.773C97.545 367.066 96.7401 367.213 95.831 367.213C94.4957 367.213 93.4209 366.934 92.6065 366.375C91.7921 365.812 91.3068 365.028 91.1506 364.024L93.6577 363.783C93.7713 364.275 94.0128 364.647 94.3821 364.898C94.7514 365.149 95.232 365.274 95.8239 365.274C96.4347 365.274 96.9247 365.149 97.294 364.898C97.6681 364.647 97.8551 364.337 97.8551 363.967C97.8551 363.655 97.7344 363.397 97.4929 363.193C97.2562 362.99 96.8868 362.833 96.3849 362.724L94.5241 362.334C93.4777 362.116 92.7036 361.749 92.2017 361.233C91.6998 360.712 91.4512 360.054 91.456 359.259C91.4512 358.586 91.6335 358.004 92.0028 357.511C92.3769 357.014 92.8954 356.631 93.5582 356.361C94.2259 356.086 94.9953 355.949 95.8665 355.949C97.1449 355.949 98.151 356.221 98.8849 356.766C99.6236 357.31 100.08 358.046 100.256 358.974ZM104.208 371.091C103.858 371.091 103.533 371.063 103.235 371.006C102.942 370.954 102.707 370.892 102.532 370.821L103.129 368.818C103.503 368.927 103.836 368.979 104.13 368.974C104.424 368.97 104.682 368.877 104.904 368.697C105.131 368.522 105.323 368.229 105.479 367.817L105.7 367.227L101.744 356.091H104.471L106.985 364.33H107.099L109.62 356.091H112.354L107.987 368.321C107.783 368.899 107.513 369.393 107.177 369.805C106.841 370.222 106.429 370.539 105.941 370.757C105.458 370.98 104.88 371.091 104.208 371.091Z" fill="black"/>
<path d="M69.3026 644H66.4901L71.6108 629.455H74.8636L79.9915 644H77.179L73.294 632.438H73.1804L69.3026 644ZM69.3949 638.297H77.0653V640.413H69.3949V638.297ZM90.1708 633.091L86.2859 644H83.445L79.56 633.091H82.3015L84.8086 641.195H84.9222L87.4364 633.091H90.1708ZM94.7766 644.22C94.0853 644.22 93.4627 644.097 92.9087 643.851C92.3595 643.6 91.9239 643.231 91.6019 642.743C91.2847 642.255 91.1261 641.654 91.1261 640.939C91.1261 640.323 91.2397 639.814 91.467 639.412C91.6942 639.009 92.0044 638.688 92.3974 638.446C92.7904 638.205 93.2331 638.022 93.7255 637.899C94.2227 637.771 94.7364 637.679 95.2667 637.622C95.9059 637.556 96.4244 637.497 96.8221 637.445C97.2198 637.388 97.5086 637.303 97.6886 637.189C97.8732 637.071 97.9656 636.888 97.9656 636.642V636.599C97.9656 636.064 97.8069 635.65 97.4897 635.357C97.1725 635.063 96.7156 634.916 96.119 634.916C95.4892 634.916 94.9897 635.054 94.6204 635.328C94.2558 635.603 94.0096 635.927 93.8817 636.301L91.4812 635.96C91.6706 635.297 91.9831 634.743 92.4187 634.298C92.8543 633.848 93.387 633.512 94.0167 633.29C94.6464 633.062 95.3424 632.949 96.1048 632.949C96.6303 632.949 97.1535 633.01 97.6744 633.134C98.1952 633.257 98.671 633.46 99.1019 633.744C99.5328 634.024 99.8784 634.405 100.139 634.888C100.404 635.371 100.537 635.974 100.537 636.699V644H98.065V642.501H97.9798C97.8235 642.804 97.6033 643.089 97.3192 643.354C97.0399 643.614 96.6871 643.825 96.261 643.986C95.8396 644.142 95.3448 644.22 94.7766 644.22ZM95.4442 642.331C95.9603 642.331 96.4078 642.229 96.7866 642.026C97.1654 641.817 97.4566 641.543 97.6602 641.202C97.8685 640.861 97.9727 640.489 97.9727 640.087V638.801C97.8922 638.867 97.7549 638.929 97.5607 638.986C97.3713 639.043 97.1583 639.092 96.9215 639.135C96.6848 639.178 96.4504 639.215 96.2184 639.249C95.9864 639.282 95.7852 639.31 95.6147 639.334C95.2312 639.386 94.8879 639.471 94.5849 639.589C94.2818 639.708 94.0427 639.874 93.8675 640.087C93.6924 640.295 93.6048 640.565 93.6048 640.896C93.6048 641.37 93.7776 641.727 94.1232 641.969C94.4689 642.21 94.9092 642.331 95.4442 642.331ZM103.122 644V633.091H105.693V644H103.122ZM104.414 631.543C104.007 631.543 103.657 631.408 103.363 631.138C103.07 630.863 102.923 630.534 102.923 630.151C102.923 629.762 103.07 629.433 103.363 629.163C103.657 628.889 104.007 628.751 104.414 628.751C104.826 628.751 105.177 628.889 105.466 629.163C105.759 629.433 105.906 629.762 105.906 630.151C105.906 630.534 105.759 630.863 105.466 631.138C105.177 631.408 104.826 631.543 104.414 631.543ZM110.908 629.455V644H108.337V629.455H110.908ZM116.691 644.22C115.999 644.22 115.377 644.097 114.823 643.851C114.274 643.6 113.838 643.231 113.516 642.743C113.199 642.255 113.04 641.654 113.04 640.939C113.04 640.323 113.154 639.814 113.381 639.412C113.608 639.009 113.918 638.688 114.311 638.446C114.704 638.205 115.147 638.022 115.64 637.899C116.137 637.771 116.65 637.679 117.181 637.622C117.82 637.556 118.338 637.497 118.736 637.445C119.134 637.388 119.423 637.303 119.603 637.189C119.787 637.071 119.88 636.888 119.88 636.642V636.599C119.88 636.064 119.721 635.65 119.404 635.357C119.087 635.063 118.63 634.916 118.033 634.916C117.403 634.916 116.904 635.054 116.534 635.328C116.17 635.603 115.924 635.927 115.796 636.301L113.395 635.96C113.585 635.297 113.897 634.743 114.333 634.298C114.768 633.848 115.301 633.512 115.931 633.29C116.56 633.062 117.257 632.949 118.019 632.949C118.544 632.949 119.068 633.01 119.588 633.134C120.109 633.257 120.585 633.46 121.016 633.744C121.447 634.024 121.792 634.405 122.053 634.888C122.318 635.371 122.451 635.974 122.451 636.699V644H119.979V642.501H119.894C119.738 642.804 119.517 643.089 119.233 643.354C118.954 643.614 118.601 643.825 118.175 643.986C117.754 644.142 117.259 644.22 116.691 644.22ZM117.358 642.331C117.874 642.331 118.322 642.229 118.701 642.026C119.079 641.817 119.371 641.543 119.574 641.202C119.783 640.861 119.887 640.489 119.887 640.087V638.801C119.806 638.867 119.669 638.929 119.475 638.986C119.285 639.043 119.072 639.092 118.836 639.135C118.599 639.178 118.364 639.215 118.132 639.249C117.9 639.282 117.699 639.31 117.529 639.334C117.145 639.386 116.802 639.471 116.499 639.589C116.196 639.708 115.957 639.874 115.782 640.087C115.606 640.295 115.519 640.565 115.519 640.896C115.519 641.37 115.692 641.727 116.037 641.969C116.383 642.21 116.823 642.331 117.358 642.331ZM125.15 644V629.455H127.721V634.895H127.827C127.96 634.63 128.147 634.348 128.388 634.05C128.63 633.747 128.956 633.489 129.368 633.276C129.78 633.058 130.306 632.949 130.945 632.949C131.788 632.949 132.548 633.164 133.225 633.595C133.907 634.021 134.446 634.653 134.844 635.491C135.247 636.325 135.448 637.348 135.448 638.56C135.448 639.758 135.251 640.776 134.858 641.614C134.465 642.452 133.93 643.091 133.253 643.531C132.576 643.972 131.809 644.192 130.952 644.192C130.327 644.192 129.809 644.088 129.397 643.879C128.985 643.671 128.653 643.42 128.402 643.126C128.156 642.828 127.964 642.546 127.827 642.281H127.678V644H125.15ZM127.671 638.545C127.671 639.251 127.77 639.869 127.969 640.399C128.173 640.929 128.464 641.344 128.843 641.642C129.226 641.936 129.69 642.082 130.235 642.082C130.803 642.082 131.279 641.931 131.662 641.628C132.046 641.32 132.335 640.901 132.529 640.371C132.728 639.836 132.827 639.227 132.827 638.545C132.827 637.868 132.73 637.267 132.536 636.741C132.342 636.216 132.053 635.804 131.669 635.506C131.286 635.207 130.808 635.058 130.235 635.058C129.685 635.058 129.219 635.203 128.836 635.491C128.452 635.78 128.161 636.185 127.962 636.706C127.768 637.227 127.671 637.84 127.671 638.545ZM140.205 629.455V644H137.634V629.455H140.205ZM147.678 644.213C146.584 644.213 145.64 643.986 144.844 643.531C144.053 643.072 143.445 642.423 143.019 641.585C142.593 640.742 142.38 639.75 142.38 638.609C142.38 637.487 142.593 636.502 143.019 635.655C143.45 634.803 144.051 634.14 144.823 633.666C145.595 633.188 146.501 632.949 147.543 632.949C148.215 632.949 148.85 633.058 149.446 633.276C150.048 633.489 150.578 633.82 151.037 634.27C151.501 634.72 151.866 635.293 152.131 635.989C152.396 636.68 152.529 637.504 152.529 638.46V639.249H143.587V637.516H150.064C150.06 637.023 149.953 636.585 149.745 636.202C149.536 635.813 149.245 635.508 148.871 635.286C148.502 635.063 148.071 634.952 147.578 634.952C147.053 634.952 146.591 635.08 146.194 635.335C145.796 635.586 145.486 635.918 145.263 636.33C145.045 636.737 144.934 637.184 144.929 637.672V639.185C144.929 639.819 145.045 640.364 145.277 640.818C145.509 641.268 145.834 641.614 146.25 641.855C146.667 642.092 147.155 642.21 147.713 642.21C148.087 642.21 148.426 642.158 148.729 642.054C149.032 641.945 149.295 641.786 149.517 641.578C149.74 641.37 149.908 641.112 150.022 640.804L152.422 641.074C152.271 641.708 151.982 642.262 151.556 642.736C151.134 643.205 150.595 643.569 149.936 643.83C149.278 644.085 148.525 644.213 147.678 644.213Z" fill="black"/>
<path d="M66.4347 937V922.455H72.0028C73.054 922.455 73.9276 922.62 74.6236 922.952C75.3243 923.278 75.8475 923.726 76.1932 924.294C76.5436 924.862 76.7188 925.506 76.7188 926.226C76.7188 926.818 76.6051 927.324 76.3778 927.746C76.1506 928.162 75.8452 928.501 75.4616 928.761C75.0781 929.022 74.6496 929.209 74.1761 929.322V929.464C74.6922 929.493 75.187 929.652 75.6605 929.94C76.1387 930.224 76.5294 930.627 76.8324 931.148C77.1354 931.669 77.2869 932.298 77.2869 933.037C77.2869 933.79 77.1046 934.467 76.7401 935.068C76.3755 935.665 75.8262 936.136 75.0923 936.482C74.3584 936.827 73.4351 937 72.3224 937H66.4347ZM69.0696 934.798H71.9034C72.8598 934.798 73.5488 934.616 73.9702 934.251C74.3963 933.882 74.6094 933.409 74.6094 932.831C74.6094 932.4 74.5028 932.012 74.2898 931.666C74.0767 931.316 73.7737 931.041 73.3807 930.842C72.9877 930.639 72.5189 930.537 71.9744 930.537H69.0696V934.798ZM69.0696 928.641H71.6761C72.1307 928.641 72.5402 928.558 72.9048 928.392C73.2694 928.222 73.5559 927.982 73.7642 927.675C73.9773 927.362 74.0838 926.993 74.0838 926.567C74.0838 926.003 73.8849 925.539 73.4872 925.175C73.0942 924.81 72.5095 924.628 71.733 924.628H69.0696V928.641ZM86.4187 932.412V926.091H88.9897V937H86.4968V935.061H86.3832C86.137 935.672 85.7321 936.171 85.1687 936.56C84.61 936.948 83.921 937.142 83.1019 937.142C82.387 937.142 81.7549 936.983 81.2056 936.666C80.6611 936.344 80.235 935.878 79.9272 935.267C79.6194 934.652 79.4656 933.908 79.4656 933.037V926.091H82.0366V932.639C82.0366 933.33 82.226 933.88 82.6048 934.287C82.9835 934.694 83.4807 934.898 84.0962 934.898C84.475 934.898 84.842 934.805 85.1971 934.621C85.5522 934.436 85.8434 934.161 86.0707 933.797C86.3027 933.428 86.4187 932.966 86.4187 932.412ZM100.256 928.974L97.9119 929.23C97.8456 928.993 97.7296 928.771 97.5639 928.562C97.4029 928.354 97.1851 928.186 96.9105 928.058C96.6359 927.93 96.2997 927.866 95.902 927.866C95.367 927.866 94.9171 927.982 94.5526 928.214C94.1927 928.446 94.0152 928.747 94.0199 929.116C94.0152 929.434 94.1312 929.692 94.3679 929.891C94.6094 930.089 95.0071 930.253 95.5611 930.381L97.4219 930.778C98.4541 931.001 99.2211 931.354 99.723 931.837C100.23 932.32 100.485 932.952 100.49 933.733C100.485 934.42 100.284 935.026 99.8864 935.551C99.4934 936.072 98.9465 936.479 98.2457 936.773C97.545 937.066 96.7401 937.213 95.831 937.213C94.4957 937.213 93.4209 936.934 92.6065 936.375C91.7921 935.812 91.3068 935.028 91.1506 934.024L93.6577 933.783C93.7713 934.275 94.0128 934.647 94.3821 934.898C94.7514 935.149 95.232 935.274 95.8239 935.274C96.4347 935.274 96.9247 935.149 97.294 934.898C97.6681 934.647 97.8551 934.337 97.8551 933.967C97.8551 933.655 97.7344 933.397 97.4929 933.193C97.2562 932.99 96.8868 932.833 96.3849 932.724L94.5241 932.334C93.4777 932.116 92.7036 931.749 92.2017 931.233C91.6998 930.712 91.4512 930.054 91.456 929.259C91.4512 928.586 91.6335 928.004 92.0028 927.511C92.3769 927.014 92.8954 926.631 93.5582 926.361C94.2259 926.086 94.9953 925.949 95.8665 925.949C97.1449 925.949 98.151 926.221 98.8849 926.766C99.6236 927.31 100.08 928.046 100.256 928.974ZM104.208 941.091C103.858 941.091 103.533 941.063 103.235 941.006C102.942 940.954 102.707 940.892 102.532 940.821L103.129 938.818C103.503 938.927 103.836 938.979 104.13 938.974C104.424 938.97 104.682 938.877 104.904 938.697C105.131 938.522 105.323 938.229 105.479 937.817L105.7 937.227L101.744 926.091H104.471L106.985 934.33H107.099L109.62 926.091H112.354L107.987 938.321C107.783 938.899 107.513 939.393 107.177 939.805C106.841 940.222 106.429 940.539 105.941 940.757C105.458 940.98 104.88 941.091 104.208 941.091Z" fill="black"/>
<path d="M27.3335 628.5H50.6668M49.5002 628.5V641.333C49.5002 641.952 49.2543 642.546 48.8167 642.983C48.3792 643.421 47.7857 643.667 47.1668 643.667H30.8335C30.2147 643.667 29.6212 643.421 29.1836 642.983C28.746 642.546 28.5002 641.952 28.5002 641.333V628.5M33.1668 649.5L39.0002 643.667L44.8335 649.5" stroke="black" stroke-width="2" stroke-linecap="round" stroke-linejoin="round"/>
<path d="M15.7216 23V5.54545H18.8835V12.9347H26.9716V5.54545H30.142V23H26.9716V15.5852H18.8835V23H15.7216ZM39.1548 23.2557C37.8764 23.2557 36.7685 22.9744 35.831 22.4119C34.8935 21.8494 34.1662 21.0625 33.6491 20.0511C33.1378 19.0398 32.8821 17.858 32.8821 16.5057C32.8821 15.1534 33.1378 13.9687 33.6491 12.9517C34.1662 11.9347 34.8935 11.1449 35.831 10.5824C36.7685 10.0199 37.8764 9.73864 39.1548 9.73864C40.4332 9.73864 41.5412 10.0199 42.4787 10.5824C43.4162 11.1449 44.1406 11.9347 44.652 12.9517C45.169 13.9687 45.4276 15.1534 45.4276 16.5057C45.4276 17.858 45.169 19.0398 44.652 20.0511C44.1406 21.0625 43.4162 21.8494 42.4787 22.4119C41.5412 22.9744 40.4332 23.2557 39.1548 23.2557ZM39.1719 20.7841C39.8651 20.7841 40.4446 20.5937 40.9105 20.2131C41.3764 19.8267 41.723 19.3097 41.9503 18.6619C42.1832 18.0142 42.2997 17.2926 42.2997 16.4972C42.2997 15.696 42.1832 14.9716 41.9503 14.3239C41.723 13.6705 41.3764 13.1506 40.9105 12.7642C40.4446 12.3778 39.8651 12.1847 39.1719 12.1847C38.4616 12.1847 37.8707 12.3778 37.3991 12.7642C36.9332 13.1506 36.5838 13.6705 36.3509 14.3239C36.1236 14.9716 36.0099 15.696 36.0099 16.4972C36.0099 17.2926 36.1236 18.0142 36.3509 18.6619C36.5838 19.3097 36.9332 19.8267 37.3991 20.2131C37.8707 20.5937 38.4616 20.7841 39.1719 20.7841ZM50.3729 23L46.674 9.90909H49.8189L52.12 19.1136H52.2393L54.5916 9.90909H57.7024L60.0547 19.0625H60.1825L62.4496 9.90909H65.603L61.8956 23H58.6825L56.228 14.1534H56.049L53.5945 23H50.3729ZM79.4205 23.2557C78.142 23.2557 77.0341 22.9744 76.0966 22.4119C75.1591 21.8494 74.4318 21.0625 73.9148 20.0511C73.4034 19.0398 73.1477 17.858 73.1477 16.5057C73.1477 15.1534 73.4034 13.9687 73.9148 12.9517C74.4318 11.9347 75.1591 11.1449 76.0966 10.5824C77.0341 10.0199 78.142 9.73864 79.4205 9.73864C80.6989 9.73864 81.8068 10.0199 82.7443 10.5824C83.6818 11.1449 84.4063 11.9347 84.9176 12.9517C85.4347 13.9687 85.6932 15.1534 85.6932 16.5057C85.6932 17.858 85.4347 19.0398 84.9176 20.0511C84.4063 21.0625 83.6818 21.8494 82.7443 22.4119C81.8068 22.9744 80.6989 23.2557 79.4205 23.2557ZM79.4375 20.7841C80.1307 20.7841 80.7102 20.5937 81.1761 20.2131C81.642 19.8267 81.9886 19.3097 82.2159 18.6619C82.4489 18.0142 82.5653 17.2926 82.5653 16.4972C82.5653 15.696 82.4489 14.9716 82.2159 14.3239C81.9886 13.6705 81.642 13.1506 81.1761 12.7642C80.7102 12.3778 80.1307 12.1847 79.4375 12.1847C78.7273 12.1847 78.1364 12.3778 77.6648 12.7642C77.1989 13.1506 76.8494 13.6705 76.6165 14.3239C76.3892 14.9716 76.2756 15.696 76.2756 16.4972C76.2756 17.2926 76.3892 18.0142 76.6165 18.6619C76.8494 19.3097 77.1989 19.8267 77.6648 20.2131C78.1364 20.5937 78.7273 20.7841 79.4375 20.7841ZM94.8487 9.90909V12.2955H87.3232V9.90909H94.8487ZM89.1811 6.77273H92.2663V19.0625C92.2663 19.4773 92.3288 19.7955 92.4538 20.017C92.5845 20.233 92.755 20.3807 92.9652 20.4602C93.1754 20.5398 93.4084 20.5795 93.6641 20.5795C93.8572 20.5795 94.0334 20.5653 94.1925 20.5369C94.3572 20.5085 94.4822 20.483 94.5675 20.4602L95.0874 22.8722C94.9226 22.929 94.6868 22.9915 94.38 23.0597C94.0788 23.1278 93.7095 23.1676 93.272 23.179C92.4993 23.2017 91.8033 23.0852 91.1839 22.8295C90.5646 22.5682 90.0732 22.1648 89.7095 21.6193C89.3516 21.0739 89.1754 20.392 89.1811 19.5739V6.77273ZM100.795 15.3295V23H97.7102V5.54545H100.727V12.1335H100.881C101.188 11.3949 101.662 10.8125 102.304 10.3864C102.952 9.95455 103.776 9.73864 104.776 9.73864C105.685 9.73864 106.477 9.92898 107.153 10.3097C107.83 10.6903 108.352 11.2472 108.722 11.9801C109.097 12.7131 109.284 13.608 109.284 14.6648V23H106.199V15.142C106.199 14.2614 105.972 13.5767 105.517 13.0881C105.068 12.5937 104.438 12.3466 103.625 12.3466C103.08 12.3466 102.591 12.4659 102.159 12.7045C101.733 12.9375 101.398 13.2756 101.153 13.7188C100.915 14.1619 100.795 14.6989 100.795 15.3295ZM118.224 23.2557C116.912 23.2557 115.778 22.983 114.824 22.4375C113.875 21.8864 113.145 21.108 112.634 20.1023C112.122 19.0909 111.866 17.9006 111.866 16.5312C111.866 15.1847 112.122 14.0028 112.634 12.9858C113.151 11.9631 113.872 11.1676 114.798 10.5994C115.724 10.0256 116.812 9.73864 118.062 9.73864C118.869 9.73864 119.631 9.86932 120.347 10.1307C121.068 10.3864 121.705 10.7841 122.256 11.3239C122.813 11.8636 123.25 12.5511 123.568 13.3864C123.886 14.2159 124.045 15.2045 124.045 16.3523V17.2983H113.315V15.2188H121.088C121.082 14.6278 120.955 14.1023 120.705 13.642C120.455 13.1761 120.105 12.8097 119.656 12.5426C119.213 12.2756 118.696 12.142 118.105 12.142C117.474 12.142 116.92 12.2955 116.443 12.6023C115.966 12.9034 115.594 13.3011 115.327 13.7955C115.065 14.2841 114.932 14.821 114.926 15.4062V17.2216C114.926 17.983 115.065 18.6364 115.344 19.1818C115.622 19.7216 116.011 20.1364 116.511 20.4261C117.011 20.7102 117.597 20.8523 118.267 20.8523C118.716 20.8523 119.122 20.7898 119.486 20.6648C119.849 20.5341 120.165 20.3438 120.432 20.0938C120.699 19.8438 120.901 19.5341 121.037 19.1648L123.918 19.4886C123.736 20.25 123.389 20.9148 122.878 21.483C122.372 22.0455 121.724 22.483 120.935 22.7955C120.145 23.1023 119.241 23.2557 118.224 23.2557ZM126.656 23V9.90909H129.647V12.0909H129.783C130.022 11.3352 130.431 10.7528 131.011 10.3438C131.596 9.92898 132.263 9.72159 133.013 9.72159C133.184 9.72159 133.374 9.73011 133.585 9.74716C133.8 9.75852 133.979 9.77841 134.121 9.80682V12.6449C133.991 12.5994 133.783 12.5597 133.499 12.5256C133.221 12.4858 132.951 12.4659 132.69 12.4659C132.127 12.4659 131.621 12.5881 131.173 12.8324C130.729 13.071 130.38 13.4034 130.124 13.8295C129.869 14.2557 129.741 14.7472 129.741 15.304V23H126.656ZM146.518 13.3693L143.705 13.6761C143.626 13.392 143.487 13.125 143.288 12.875C143.094 12.625 142.833 12.4233 142.504 12.2699C142.174 12.1165 141.771 12.0398 141.293 12.0398C140.651 12.0398 140.112 12.179 139.674 12.4574C139.242 12.7358 139.029 13.0966 139.035 13.5398C139.029 13.9205 139.168 14.2301 139.452 14.4688C139.742 14.7074 140.219 14.9034 140.884 15.0568L143.117 15.5341C144.356 15.8011 145.276 16.2244 145.879 16.804C146.487 17.3835 146.793 18.142 146.799 19.0795C146.793 19.9034 146.552 20.6307 146.075 21.2614C145.603 21.8864 144.947 22.375 144.106 22.7273C143.265 23.0795 142.299 23.2557 141.208 23.2557C139.606 23.2557 138.316 22.9205 137.339 22.25C136.362 21.5739 135.779 20.6335 135.592 19.429L138.6 19.1392C138.737 19.7301 139.026 20.1761 139.469 20.4773C139.913 20.7784 140.489 20.929 141.2 20.929C141.933 20.929 142.521 20.7784 142.964 20.4773C143.413 20.1761 143.637 19.804 143.637 19.3608C143.637 18.9858 143.492 18.6761 143.202 18.4318C142.918 18.1875 142.475 18 141.873 17.8693L139.64 17.4006C138.384 17.1392 137.455 16.6989 136.853 16.0795C136.251 15.4545 135.952 14.6648 135.958 13.7102C135.952 12.9034 136.171 12.2045 136.614 11.6136C137.063 11.017 137.685 10.5568 138.481 10.233C139.282 9.90341 140.205 9.73864 141.251 9.73864C142.785 9.73864 143.992 10.0653 144.873 10.7188C145.759 11.3722 146.308 12.2557 146.518 13.3693ZM165.643 13.3693L162.83 13.6761C162.751 13.392 162.612 13.125 162.413 12.875C162.219 12.625 161.958 12.4233 161.629 12.2699C161.299 12.1165 160.896 12.0398 160.418 12.0398C159.776 12.0398 159.237 12.179 158.799 12.4574C158.367 12.7358 158.154 13.0966 158.16 13.5398C158.154 13.9205 158.293 14.2301 158.577 14.4688C158.867 14.7074 159.344 14.9034 160.009 15.0568L162.242 15.5341C163.481 15.8011 164.401 16.2244 165.004 16.804C165.612 17.3835 165.918 18.142 165.924 19.0795C165.918 19.9034 165.677 20.6307 165.2 21.2614C164.728 21.8864 164.072 22.375 163.231 22.7273C162.39 23.0795 161.424 23.2557 160.333 23.2557C158.731 23.2557 157.441 22.9205 156.464 22.25C155.487 21.5739 154.904 20.6335 154.717 19.429L157.725 19.1392C157.862 19.7301 158.151 20.1761 158.594 20.4773C159.038 20.7784 159.614 20.929 160.325 20.929C161.058 20.929 161.646 20.7784 162.089 20.4773C162.538 20.1761 162.762 19.804 162.762 19.3608C162.762 18.9858 162.617 18.6761 162.327 18.4318C162.043 18.1875 161.6 18 160.998 17.8693L158.765 17.4006C157.509 17.1392 156.58 16.6989 155.978 16.0795C155.376 15.4545 155.077 14.6648 155.083 13.7102C155.077 12.9034 155.296 12.2045 155.739 11.6136C156.188 11.017 156.81 10.5568 157.606 10.233C158.407 9.90341 159.33 9.73864 160.376 9.73864C161.91 9.73864 163.117 10.0653 163.998 10.7188C164.884 11.3722 165.433 12.2557 165.643 13.3693ZM174.263 23.2557C172.951 23.2557 171.817 22.983 170.863 22.4375C169.914 21.8864 169.184 21.108 168.673 20.1023C168.161 19.0909 167.906 17.9006 167.906 16.5312C167.906 15.1847 168.161 14.0028 168.673 12.9858C169.19 11.9631 169.911 11.1676 170.837 10.5994C171.763 10.0256 172.852 9.73864 174.102 9.73864C174.908 9.73864 175.67 9.86932 176.386 10.1307C177.107 10.3864 177.744 10.7841 178.295 11.3239C178.852 11.8636 179.289 12.5511 179.607 13.3864C179.925 14.2159 180.085 15.2045 180.085 16.3523V17.2983H169.354V15.2188H177.127C177.121 14.6278 176.994 14.1023 176.744 13.642C176.494 13.1761 176.144 12.8097 175.695 12.5426C175.252 12.2756 174.735 12.142 174.144 12.142C173.513 12.142 172.96 12.2955 172.482 12.6023C172.005 12.9034 171.633 13.3011 171.366 13.7955C171.104 14.2841 170.971 14.821 170.965 15.4062V17.2216C170.965 17.983 171.104 18.6364 171.383 19.1818C171.661 19.7216 172.05 20.1364 172.55 20.4261C173.05 20.7102 173.636 20.8523 174.306 20.8523C174.755 20.8523 175.161 20.7898 175.525 20.6648C175.888 20.5341 176.204 20.3438 176.471 20.0938C176.738 19.8438 176.94 19.5341 177.076 19.1648L179.957 19.4886C179.775 20.25 179.428 20.9148 178.917 21.483C178.411 22.0455 177.763 22.483 176.974 22.7955C176.184 23.1023 175.281 23.2557 174.263 23.2557ZM188.49 23.2557C187.178 23.2557 186.044 22.983 185.089 22.4375C184.141 21.8864 183.411 21.108 182.899 20.1023C182.388 19.0909 182.132 17.9006 182.132 16.5312C182.132 15.1847 182.388 14.0028 182.899 12.9858C183.416 11.9631 184.138 11.1676 185.064 10.5994C185.99 10.0256 187.078 9.73864 188.328 9.73864C189.135 9.73864 189.896 9.86932 190.612 10.1307C191.334 10.3864 191.97 10.7841 192.521 11.3239C193.078 11.8636 193.516 12.5511 193.834 13.3864C194.152 14.2159 194.311 15.2045 194.311 16.3523V17.2983H183.581V15.2188H191.354C191.348 14.6278 191.22 14.1023 190.97 13.642C190.72 13.1761 190.371 12.8097 189.922 12.5426C189.479 12.2756 188.962 12.142 188.371 12.142C187.74 12.142 187.186 12.2955 186.709 12.6023C186.232 12.9034 185.859 13.3011 185.592 13.7955C185.331 14.2841 185.197 14.821 185.192 15.4062V17.2216C185.192 17.983 185.331 18.6364 185.609 19.1818C185.888 19.7216 186.277 20.1364 186.777 20.4261C187.277 20.7102 187.862 20.8523 188.533 20.8523C188.982 20.8523 189.388 20.7898 189.751 20.6648C190.115 20.5341 190.43 20.3438 190.697 20.0938C190.964 19.8438 191.166 19.5341 191.303 19.1648L194.183 19.4886C194.001 20.25 193.655 20.9148 193.143 21.483C192.638 22.0455 191.99 22.483 191.2 22.7955C190.411 23.1023 189.507 23.2557 188.49 23.2557ZM204.792 27.9091C204.371 27.9091 203.982 27.875 203.624 27.8068C203.272 27.7443 202.991 27.6705 202.781 27.5852L203.496 25.1818C203.945 25.3125 204.346 25.375 204.698 25.3693C205.05 25.3636 205.36 25.2528 205.627 25.0369C205.9 24.8267 206.13 24.4744 206.317 23.9801L206.582 23.2727L201.835 9.90909H205.107L208.124 19.7955H208.261L211.286 9.90909H214.567L209.326 24.5852C209.082 25.2784 208.758 25.8722 208.354 26.3665C207.951 26.8665 207.457 27.2472 206.871 27.5085C206.292 27.7756 205.599 27.9091 204.792 27.9091ZM221.967 23.2557C220.689 23.2557 219.581 22.9744 218.643 22.4119C217.706 21.8494 216.979 21.0625 216.462 20.0511C215.95 19.0398 215.695 17.858 215.695 16.5057C215.695 15.1534 215.95 13.9687 216.462 12.9517C216.979 11.9347 217.706 11.1449 218.643 10.5824C219.581 10.0199 220.689 9.73864 221.967 9.73864C223.246 9.73864 224.354 10.0199 225.291 10.5824C226.229 11.1449 226.953 11.9347 227.464 12.9517C227.982 13.9687 228.24 15.1534 228.24 16.5057C228.24 17.858 227.982 19.0398 227.464 20.0511C226.953 21.0625 226.229 21.8494 225.291 22.4119C224.354 22.9744 223.246 23.2557 221.967 23.2557ZM221.984 20.7841C222.678 20.7841 223.257 20.5937 223.723 20.2131C224.189 19.8267 224.536 19.3097 224.763 18.6619C224.996 18.0142 225.112 17.2926 225.112 16.4972C225.112 15.696 224.996 14.9716 224.763 14.3239C224.536 13.6705 224.189 13.1506 223.723 12.7642C223.257 12.3778 222.678 12.1847 221.984 12.1847C221.274 12.1847 220.683 12.3778 220.212 12.7642C219.746 13.1506 219.396 13.6705 219.163 14.3239C218.936 14.9716 218.822 15.696 218.822 16.4972C218.822 17.2926 218.936 18.0142 219.163 18.6619C219.396 19.3097 219.746 19.8267 220.212 20.2131C220.683 20.5937 221.274 20.7841 221.984 20.7841ZM239.202 17.4943V9.90909H242.288V23H239.296V20.6733H239.16C238.864 21.4062 238.379 22.0057 237.702 22.4716C237.032 22.9375 236.205 23.1705 235.222 23.1705C234.364 23.1705 233.606 22.9801 232.947 22.5994C232.293 22.2131 231.782 21.6534 231.413 20.9205C231.043 20.1818 230.859 19.2898 230.859 18.2443V9.90909H233.944V17.767C233.944 18.5966 234.171 19.2557 234.626 19.7443C235.08 20.233 235.677 20.4773 236.415 20.4773C236.87 20.4773 237.31 20.3665 237.737 20.1449C238.163 19.9233 238.512 19.5938 238.785 19.1562C239.063 18.7131 239.202 18.1591 239.202 17.4943ZM245.46 23V9.90909H248.452V12.0909H248.588C248.827 11.3352 249.236 10.7528 249.815 10.3438C250.401 9.92898 251.068 9.72159 251.818 9.72159C251.989 9.72159 252.179 9.73011 252.389 9.74716C252.605 9.75852 252.784 9.77841 252.926 9.80682V12.6449C252.795 12.5994 252.588 12.5597 252.304 12.5256C252.026 12.4858 251.756 12.4659 251.494 12.4659C250.932 12.4659 250.426 12.5881 249.977 12.8324C249.534 13.071 249.185 13.4034 248.929 13.8295C248.673 14.2557 248.545 14.7472 248.545 15.304V23H245.46ZM266.639 23.2557C265.332 23.2557 264.21 22.9688 263.273 22.3949C262.341 21.821 261.622 21.0284 261.116 20.017C260.616 19 260.366 17.8295 260.366 16.5057C260.366 15.1761 260.622 14.0028 261.134 12.9858C261.645 11.9631 262.366 11.1676 263.298 10.5994C264.236 10.0256 265.344 9.73864 266.622 9.73864C267.685 9.73864 268.625 9.93466 269.443 10.3267C270.267 10.7131 270.923 11.2614 271.412 11.9716C271.901 12.6761 272.179 13.5 272.247 14.4432H269.298C269.179 13.8125 268.895 13.2869 268.446 12.8665C268.003 12.4403 267.409 12.2273 266.665 12.2273C266.034 12.2273 265.48 12.3977 265.003 12.7386C264.526 13.0739 264.153 13.5568 263.886 14.1875C263.625 14.8182 263.494 15.5739 263.494 16.4545C263.494 17.3466 263.625 18.1136 263.886 18.7557C264.148 19.392 264.514 19.8835 264.986 20.2301C265.463 20.571 266.023 20.7415 266.665 20.7415C267.119 20.7415 267.526 20.6562 267.884 20.4858C268.247 20.3097 268.551 20.0568 268.795 19.7273C269.04 19.3977 269.207 18.9972 269.298 18.5256H272.247C272.173 19.4517 271.901 20.2727 271.429 20.9886C270.957 21.6989 270.315 22.2557 269.503 22.6591C268.69 23.0568 267.736 23.2557 266.639 23.2557ZM278.548 23.2642C277.718 23.2642 276.971 23.1165 276.306 22.821C275.647 22.5199 275.124 22.0767 274.738 21.4915C274.357 20.9062 274.167 20.1847 274.167 19.3267C274.167 18.5881 274.303 17.9773 274.576 17.4943C274.849 17.0114 275.221 16.625 275.692 16.3352C276.164 16.0455 276.695 15.8267 277.286 15.679C277.883 15.5256 278.499 15.4148 279.136 15.3466C279.903 15.267 280.525 15.196 281.002 15.1335C281.479 15.0653 281.826 14.9631 282.042 14.8267C282.263 14.6847 282.374 14.4659 282.374 14.1705V14.1193C282.374 13.4773 282.184 12.9801 281.803 12.6278C281.423 12.2756 280.874 12.0994 280.158 12.0994C279.403 12.0994 278.803 12.2642 278.36 12.5938C277.923 12.9233 277.627 13.3125 277.474 13.7614L274.593 13.3523C274.82 12.5568 275.195 11.892 275.718 11.358C276.241 10.8182 276.88 10.4148 277.636 10.1477C278.391 9.875 279.227 9.73864 280.141 9.73864C280.772 9.73864 281.4 9.8125 282.025 9.96023C282.65 10.108 283.221 10.3523 283.738 10.6932C284.255 11.0284 284.67 11.4858 284.982 12.0653C285.3 12.6449 285.46 13.3693 285.46 14.2386V23H282.494V21.2017H282.391C282.204 21.5653 281.94 21.9062 281.599 22.2244C281.263 22.5369 280.84 22.7898 280.329 22.983C279.823 23.1705 279.229 23.2642 278.548 23.2642ZM279.349 20.9972C279.968 20.9972 280.505 20.875 280.96 20.6307C281.414 20.3807 281.763 20.0511 282.008 19.642C282.258 19.233 282.383 18.7869 282.383 18.304V16.7614C282.286 16.8409 282.121 16.9148 281.888 16.983C281.661 17.0511 281.406 17.1108 281.121 17.1619C280.837 17.2131 280.556 17.2585 280.278 17.2983C279.999 17.3381 279.758 17.3722 279.553 17.4006C279.093 17.4631 278.681 17.5653 278.317 17.7074C277.954 17.8494 277.667 18.0483 277.457 18.304C277.246 18.554 277.141 18.8778 277.141 19.2756C277.141 19.8438 277.349 20.2727 277.763 20.5625C278.178 20.8523 278.707 20.9972 279.349 20.9972ZM291.647 5.54545V23H288.562V5.54545H291.647ZM300.615 23.2557C299.303 23.2557 298.169 22.983 297.214 22.4375C296.266 21.8864 295.536 21.108 295.024 20.1023C294.513 19.0909 294.257 17.9006 294.257 16.5312C294.257 15.1847 294.513 14.0028 295.024 12.9858C295.541 11.9631 296.263 11.1676 297.189 10.5994C298.115 10.0256 299.203 9.73864 300.453 9.73864C301.26 9.73864 302.021 9.86932 302.737 10.1307C303.459 10.3864 304.095 10.7841 304.646 11.3239C305.203 11.8636 305.641 12.5511 305.959 13.3864C306.277 14.2159 306.436 15.2045 306.436 16.3523V17.2983H295.706V15.2188H303.479C303.473 14.6278 303.345 14.1023 303.095 13.642C302.845 13.1761 302.496 12.8097 302.047 12.5426C301.604 12.2756 301.087 12.142 300.496 12.142C299.865 12.142 299.311 12.2955 298.834 12.6023C298.357 12.9034 297.984 13.3011 297.717 13.7955C297.456 14.2841 297.322 14.821 297.317 15.4062V17.2216C297.317 17.983 297.456 18.6364 297.734 19.1818C298.013 19.7216 298.402 20.1364 298.902 20.4261C299.402 20.7102 299.987 20.8523 300.658 20.8523C301.107 20.8523 301.513 20.7898 301.876 20.6648C302.24 20.5341 302.555 20.3438 302.822 20.0938C303.089 19.8438 303.291 19.5341 303.428 19.1648L306.308 19.4886C306.126 20.25 305.78 20.9148 305.268 21.483C304.763 22.0455 304.115 22.483 303.325 22.7955C302.536 23.1023 301.632 23.2557 300.615 23.2557ZM312.131 15.3295V23H309.046V9.90909H311.995V12.1335H312.148C312.45 11.4006 312.93 10.8182 313.589 10.3864C314.254 9.95455 315.075 9.73864 316.052 9.73864C316.955 9.73864 317.742 9.93182 318.413 10.3182C319.089 10.7045 319.612 11.2642 319.981 11.9972C320.356 12.7301 320.54 13.6193 320.535 14.6648V23H317.45V15.142C317.45 14.267 317.222 13.5824 316.768 13.0881C316.319 12.5937 315.697 12.3466 314.901 12.3466C314.362 12.3466 313.881 12.4659 313.461 12.7045C313.046 12.9375 312.719 13.2756 312.481 13.7188C312.248 14.1619 312.131 14.6989 312.131 15.3295ZM328.529 23.2301C327.501 23.2301 326.58 22.9659 325.768 22.4375C324.955 21.9091 324.313 21.142 323.842 20.1364C323.37 19.1307 323.134 17.9091 323.134 16.4716C323.134 15.017 323.373 13.7898 323.85 12.7898C324.333 11.7841 324.984 11.0256 325.802 10.5142C326.62 9.99716 327.532 9.73864 328.538 9.73864C329.305 9.73864 329.935 9.86932 330.43 10.1307C330.924 10.3864 331.316 10.696 331.606 11.0597C331.896 11.4176 332.12 11.7557 332.279 12.0739H332.407V5.54545H335.501V23H332.467V20.9375H332.279C332.12 21.2557 331.89 21.5937 331.589 21.9517C331.288 22.304 330.89 22.6051 330.396 22.8551C329.901 23.1051 329.279 23.2301 328.529 23.2301ZM329.39 20.6989C330.043 20.6989 330.6 20.5227 331.06 20.1705C331.521 19.8125 331.87 19.3153 332.109 18.679C332.347 18.0426 332.467 17.3011 332.467 16.4545C332.467 15.608 332.347 14.8722 332.109 14.2472C331.876 13.6222 331.529 13.1364 331.069 12.7898C330.614 12.4432 330.055 12.2699 329.39 12.2699C328.702 12.2699 328.129 12.4489 327.668 12.8068C327.208 13.1648 326.862 13.6591 326.629 14.2898C326.396 14.9205 326.279 15.642 326.279 16.4545C326.279 17.2727 326.396 18.0028 326.629 18.6449C326.867 19.2812 327.217 19.7841 327.677 20.1534C328.143 20.517 328.714 20.6989 329.39 20.6989ZM342.555 23.2642C341.726 23.2642 340.979 23.1165 340.314 22.821C339.655 22.5199 339.132 22.0767 338.746 21.4915C338.365 20.9062 338.175 20.1847 338.175 19.3267C338.175 18.5881 338.311 17.9773 338.584 17.4943C338.857 17.0114 339.229 16.625 339.7 16.3352C340.172 16.0455 340.703 15.8267 341.294 15.679C341.891 15.5256 342.507 15.4148 343.143 15.3466C343.911 15.267 344.533 15.196 345.01 15.1335C345.487 15.0653 345.834 14.9631 346.05 14.8267C346.271 14.6847 346.382 14.4659 346.382 14.1705V14.1193C346.382 13.4773 346.192 12.9801 345.811 12.6278C345.43 12.2756 344.882 12.0994 344.166 12.0994C343.411 12.0994 342.811 12.2642 342.368 12.5938C341.93 12.9233 341.635 13.3125 341.482 13.7614L338.601 13.3523C338.828 12.5568 339.203 11.892 339.726 11.358C340.249 10.8182 340.888 10.4148 341.643 10.1477C342.399 9.875 343.234 9.73864 344.149 9.73864C344.78 9.73864 345.408 9.8125 346.033 9.96023C346.658 10.108 347.229 10.3523 347.746 10.6932C348.263 11.0284 348.678 11.4858 348.99 12.0653C349.308 12.6449 349.467 13.3693 349.467 14.2386V23H346.501V21.2017H346.399C346.212 21.5653 345.947 21.9062 345.607 22.2244C345.271 22.5369 344.848 22.7898 344.337 22.983C343.831 23.1705 343.237 23.2642 342.555 23.2642ZM343.357 20.9972C343.976 20.9972 344.513 20.875 344.967 20.6307C345.422 20.3807 345.771 20.0511 346.016 19.642C346.266 19.233 346.391 18.7869 346.391 18.304V16.7614C346.294 16.8409 346.129 16.9148 345.896 16.983C345.669 17.0511 345.413 17.1108 345.129 17.1619C344.845 17.2131 344.564 17.2585 344.286 17.2983C344.007 17.3381 343.766 17.3722 343.561 17.4006C343.101 17.4631 342.689 17.5653 342.325 17.7074C341.962 17.8494 341.675 18.0483 341.464 18.304C341.254 18.554 341.149 18.8778 341.149 19.2756C341.149 19.8438 341.357 20.2727 341.771 20.5625C342.186 20.8523 342.714 20.9972 343.357 20.9972ZM352.57 23V9.90909H355.561V12.0909H355.697C355.936 11.3352 356.345 10.7528 356.925 10.3438C357.51 9.92898 358.178 9.72159 358.928 9.72159C359.098 9.72159 359.288 9.73011 359.499 9.74716C359.714 9.75852 359.893 9.77841 360.036 9.80682V12.6449C359.905 12.5994 359.697 12.5597 359.413 12.5256C359.135 12.4858 358.865 12.4659 358.604 12.4659C358.041 12.4659 357.536 12.5881 357.087 12.8324C356.643 13.071 356.294 13.4034 356.038 13.8295C355.783 14.2557 355.655 14.7472 355.655 15.304V23H352.57Z" fill="black"/>
<path d="M75.2088 118.455V133H72.5739V121.018H72.4886L69.0866 123.192V120.777L72.7017 118.455H75.2088ZM84.2784 133.277C83.1089 133.277 82.1051 132.981 81.267 132.389C80.4337 131.793 79.7921 130.933 79.3423 129.811C78.8973 128.684 78.6747 127.328 78.6747 125.741C78.6795 124.155 78.9044 122.806 79.3494 121.693C79.7992 120.576 80.4408 119.723 81.2741 119.136C82.1122 118.549 83.1136 118.256 84.2784 118.256C85.4432 118.256 86.4446 118.549 87.2827 119.136C88.1207 119.723 88.7623 120.576 89.2074 121.693C89.6572 122.811 89.8821 124.16 89.8821 125.741C89.8821 127.332 89.6572 128.691 89.2074 129.818C88.7623 130.94 88.1207 131.797 87.2827 132.389C86.4493 132.981 85.4479 133.277 84.2784 133.277ZM84.2784 131.054C85.1875 131.054 85.9048 130.607 86.4304 129.712C86.9607 128.812 87.2259 127.489 87.2259 125.741C87.2259 124.586 87.1051 123.616 86.8636 122.83C86.6222 122.044 86.2813 121.452 85.8409 121.054C85.4006 120.652 84.8797 120.45 84.2784 120.45C83.3741 120.45 82.6591 120.9 82.1335 121.8C81.608 122.695 81.3428 124.009 81.3381 125.741C81.3333 126.902 81.4493 127.877 81.6861 128.668C81.9276 129.458 82.2685 130.055 82.7088 130.457C83.1491 130.855 83.6723 131.054 84.2784 131.054ZM93.854 131.253C93.4232 131.253 93.0539 131.101 92.7461 130.798C92.4383 130.491 92.2868 130.121 92.2915 129.69C92.2868 129.264 92.4383 128.9 92.7461 128.597C93.0539 128.294 93.4232 128.142 93.854 128.142C94.2707 128.142 94.6329 128.294 94.9407 128.597C95.2532 128.9 95.4118 129.264 95.4165 129.69C95.4118 129.979 95.3361 130.242 95.1893 130.479C95.0472 130.715 94.8578 130.905 94.6211 131.047C94.3891 131.184 94.1334 131.253 93.854 131.253ZM93.854 124.044C93.4232 124.044 93.0539 123.893 92.7461 123.589C92.4383 123.282 92.2868 122.912 92.2915 122.482C92.2868 122.055 92.4383 121.691 92.7461 121.388C93.0539 121.08 93.4232 120.926 93.854 120.926C94.2707 120.926 94.6329 121.08 94.9407 121.388C95.2532 121.691 95.4118 122.055 95.4165 122.482C95.4118 122.766 95.3361 123.026 95.1893 123.263C95.0472 123.5 94.8578 123.689 94.6211 123.831C94.3891 123.973 94.1334 124.044 93.854 124.044ZM103.263 133.199C102.24 133.199 101.331 133.024 100.536 132.673C99.7448 132.323 99.1198 131.835 98.6605 131.21C98.2012 130.585 97.9574 129.863 97.929 129.044H100.599C100.623 129.437 100.753 129.78 100.99 130.074C101.227 130.363 101.542 130.588 101.935 130.749C102.328 130.91 102.768 130.99 103.256 130.99C103.777 130.99 104.238 130.9 104.641 130.72C105.043 130.536 105.358 130.28 105.585 129.953C105.813 129.626 105.924 129.25 105.919 128.824C105.924 128.384 105.81 127.995 105.578 127.659C105.346 127.323 105.01 127.06 104.57 126.871C104.134 126.681 103.608 126.587 102.993 126.587H101.707V124.555H102.993C103.5 124.555 103.942 124.468 104.321 124.293C104.705 124.117 105.005 123.871 105.223 123.554C105.441 123.232 105.547 122.86 105.543 122.439C105.547 122.027 105.455 121.67 105.266 121.366C105.081 121.059 104.818 120.82 104.477 120.649C104.141 120.479 103.746 120.393 103.291 120.393C102.846 120.393 102.434 120.474 102.055 120.635C101.677 120.796 101.371 121.026 101.139 121.324C100.907 121.617 100.784 121.968 100.77 122.375H98.2344C98.2533 121.561 98.4877 120.846 98.9375 120.23C99.392 119.61 99.9981 119.127 100.756 118.781C101.513 118.431 102.363 118.256 103.305 118.256C104.276 118.256 105.119 118.438 105.834 118.803C106.554 119.162 107.11 119.648 107.503 120.259C107.896 120.869 108.092 121.544 108.092 122.283C108.097 123.102 107.856 123.788 107.368 124.342C106.885 124.896 106.25 125.259 105.464 125.429V125.543C106.487 125.685 107.271 126.063 107.815 126.679C108.365 127.29 108.637 128.05 108.632 128.959C108.632 129.773 108.4 130.502 107.936 131.146C107.477 131.786 106.842 132.287 106.033 132.652C105.228 133.017 104.304 133.199 103.263 133.199ZM116.446 133.277C115.277 133.277 114.273 132.981 113.435 132.389C112.602 131.793 111.96 130.933 111.51 129.811C111.065 128.684 110.843 127.328 110.843 125.741C110.847 124.155 111.072 122.806 111.517 121.693C111.967 120.576 112.609 119.723 113.442 119.136C114.28 118.549 115.282 118.256 116.446 118.256C117.611 118.256 118.613 118.549 119.451 119.136C120.289 119.723 120.93 120.576 121.375 121.693C121.825 122.811 122.05 124.16 122.05 125.741C122.05 127.332 121.825 128.691 121.375 129.818C120.93 130.94 120.289 131.797 119.451 132.389C118.617 132.981 117.616 133.277 116.446 133.277ZM116.446 131.054C117.355 131.054 118.073 130.607 118.598 129.712C119.129 128.812 119.394 127.489 119.394 125.741C119.394 124.586 119.273 123.616 119.032 122.83C118.79 122.044 118.449 121.452 118.009 121.054C117.569 120.652 117.048 120.45 116.446 120.45C115.542 120.45 114.827 120.9 114.301 121.8C113.776 122.695 113.511 124.009 113.506 125.741C113.501 126.902 113.617 127.877 113.854 128.668C114.096 129.458 114.436 130.055 114.877 130.457C115.317 130.855 115.84 131.054 116.446 131.054ZM131.381 133H128.568L133.689 118.455H136.942L142.07 133H139.257L135.372 121.438H135.259L131.381 133ZM131.473 127.297H139.143V129.413H131.473V127.297ZM143.985 118.455H147.21L151.528 128.994H151.699L156.017 118.455H159.241V133H156.713V123.007H156.578L152.558 132.957H150.669L146.649 122.986H146.514V133H143.985V118.455ZM173.57 124.669V126.786H167.022V124.669H173.57ZM187.123 118.455V133H184.488V121.018H184.403L181.001 123.192V120.777L184.616 118.455H187.123ZM190.816 133V131.097L195.866 126.146C196.349 125.659 196.751 125.225 197.073 124.847C197.395 124.468 197.637 124.101 197.798 123.746C197.959 123.391 198.039 123.012 198.039 122.609C198.039 122.15 197.935 121.757 197.727 121.43C197.518 121.099 197.232 120.843 196.867 120.663C196.503 120.483 196.088 120.393 195.624 120.393C195.146 120.393 194.727 120.493 194.367 120.692C194.007 120.886 193.728 121.163 193.529 121.523C193.335 121.883 193.238 122.311 193.238 122.808H190.731C190.731 121.885 190.942 121.082 191.363 120.401C191.784 119.719 192.364 119.191 193.103 118.817C193.846 118.443 194.699 118.256 195.66 118.256C196.635 118.256 197.492 118.438 198.231 118.803C198.969 119.167 199.542 119.667 199.95 120.301C200.362 120.936 200.567 121.66 200.567 122.474C200.567 123.019 200.463 123.554 200.255 124.08C200.047 124.605 199.68 125.187 199.154 125.827C198.633 126.466 197.902 127.24 196.96 128.149L194.452 130.699V130.798H200.788V133H190.816ZM204.85 131.253C204.419 131.253 204.05 131.101 203.742 130.798C203.434 130.491 203.283 130.121 203.288 129.69C203.283 129.264 203.434 128.9 203.742 128.597C204.05 128.294 204.419 128.142 204.85 128.142C205.267 128.142 205.629 128.294 205.937 128.597C206.249 128.9 206.408 129.264 206.413 129.69C206.408 129.979 206.332 130.242 206.185 130.479C206.043 130.715 205.854 130.905 205.617 131.047C205.385 131.184 205.129 131.253 204.85 131.253ZM204.85 124.044C204.419 124.044 204.05 123.893 203.742 123.589C203.434 123.282 203.283 122.912 203.288 122.482C203.283 122.055 203.434 121.691 203.742 121.388C204.05 121.08 204.419 120.926 204.85 120.926C205.267 120.926 205.629 121.08 205.937 121.388C206.249 121.691 206.408 122.055 206.413 122.482C206.408 122.766 206.332 123.026 206.185 123.263C206.043 123.5 205.854 123.689 205.617 123.831C205.385 123.973 205.129 124.044 204.85 124.044ZM214.259 133.199C213.236 133.199 212.327 133.024 211.532 132.673C210.741 132.323 210.116 131.835 209.657 131.21C209.197 130.585 208.953 129.863 208.925 129.044H211.596C211.619 129.437 211.749 129.78 211.986 130.074C212.223 130.363 212.538 130.588 212.931 130.749C213.324 130.91 213.764 130.99 214.252 130.99C214.773 130.99 215.234 130.9 215.637 130.72C216.039 130.536 216.354 130.28 216.581 129.953C216.809 129.626 216.92 129.25 216.915 128.824C216.92 128.384 216.806 127.995 216.574 127.659C216.342 127.323 216.006 127.06 215.566 126.871C215.13 126.681 214.605 126.587 213.989 126.587H212.703V124.555H213.989C214.496 124.555 214.938 124.468 215.317 124.293C215.701 124.117 216.001 123.871 216.219 123.554C216.437 123.232 216.543 122.86 216.539 122.439C216.543 122.027 216.451 121.67 216.262 121.366C216.077 121.059 215.814 120.82 215.473 120.649C215.137 120.479 214.742 120.393 214.287 120.393C213.842 120.393 213.43 120.474 213.051 120.635C212.673 120.796 212.367 121.026 212.135 121.324C211.903 121.617 211.78 121.968 211.766 122.375H209.23C209.249 121.561 209.484 120.846 209.934 120.23C210.388 119.61 210.994 119.127 211.752 118.781C212.509 118.431 213.359 118.256 214.301 118.256C215.272 118.256 216.115 118.438 216.83 118.803C217.55 119.162 218.106 119.648 218.499 120.259C218.892 120.869 219.088 121.544 219.088 122.283C219.093 123.102 218.852 123.788 218.364 124.342C217.881 124.896 217.247 125.259 216.461 125.429V125.543C217.483 125.685 218.267 126.063 218.811 126.679C219.361 127.29 219.633 128.05 219.628 128.959C219.628 129.773 219.396 130.502 218.932 131.146C218.473 131.786 217.838 132.287 217.029 132.652C216.224 133.017 215.301 133.199 214.259 133.199ZM227.442 133.277C226.273 133.277 225.269 132.981 224.431 132.389C223.598 131.793 222.956 130.933 222.506 129.811C222.061 128.684 221.839 127.328 221.839 125.741C221.844 124.155 222.068 122.806 222.513 121.693C222.963 120.576 223.605 119.723 224.438 119.136C225.276 118.549 226.278 118.256 227.442 118.256C228.607 118.256 229.609 118.549 230.447 119.136C231.285 119.723 231.926 120.576 232.371 121.693C232.821 122.811 233.046 124.16 233.046 125.741C233.046 127.332 232.821 128.691 232.371 129.818C231.926 130.94 231.285 131.797 230.447 132.389C229.613 132.981 228.612 133.277 227.442 133.277ZM227.442 131.054C228.352 131.054 229.069 130.607 229.594 129.712C230.125 128.812 230.39 127.489 230.39 125.741C230.39 124.586 230.269 123.616 230.028 122.83C229.786 122.044 229.445 121.452 229.005 121.054C228.565 120.652 228.044 120.45 227.442 120.45C226.538 120.45 225.823 120.9 225.298 121.8C224.772 122.695 224.507 124.009 224.502 125.741C224.497 126.902 224.613 127.877 224.85 128.668C225.092 129.458 225.433 130.055 225.873 130.457C226.313 130.855 226.836 131.054 227.442 131.054ZM240.509 133V118.455H245.963C247.081 118.455 248.018 118.663 248.776 119.08C249.538 119.496 250.114 120.069 250.502 120.798C250.895 121.523 251.091 122.347 251.091 123.27C251.091 124.203 250.895 125.031 250.502 125.756C250.109 126.48 249.529 127.051 248.762 127.467C247.995 127.879 247.05 128.085 245.928 128.085H242.313V125.919H245.573C246.226 125.919 246.761 125.805 247.178 125.578C247.595 125.351 247.902 125.038 248.101 124.641C248.305 124.243 248.407 123.786 248.407 123.27C248.407 122.754 248.305 122.299 248.101 121.906C247.902 121.513 247.592 121.208 247.171 120.99C246.754 120.768 246.217 120.656 245.559 120.656H243.144V133H240.509ZM253.38 118.455H256.604L260.923 128.994H261.093L265.411 118.455H268.636V133H266.107V123.007H265.972L261.952 132.957H260.063L256.043 122.986H255.908V133H253.38V118.455Z" fill="black" fill-opacity="0.5"/>
<path d="M75.2088 391.455V406H72.5739V394.018H72.4886L69.0866 396.192V393.777L72.7017 391.455H75.2088ZM78.902 406V404.097L83.9517 399.146C84.4347 398.659 84.8371 398.225 85.1591 397.847C85.4811 397.468 85.7225 397.101 85.8835 396.746C86.0445 396.391 86.125 396.012 86.125 395.609C86.125 395.15 86.0208 394.757 85.8125 394.43C85.6042 394.099 85.3177 393.843 84.9531 393.663C84.5885 393.483 84.1742 393.393 83.7102 393.393C83.232 393.393 82.813 393.493 82.4531 393.692C82.0933 393.886 81.8139 394.163 81.6151 394.523C81.4209 394.883 81.3239 395.311 81.3239 395.808H78.8168C78.8168 394.885 79.0275 394.082 79.4489 393.401C79.8703 392.719 80.4503 392.191 81.1889 391.817C81.9323 391.443 82.7846 391.256 83.7457 391.256C84.7211 391.256 85.5781 391.438 86.3168 391.803C87.0554 392.167 87.6283 392.667 88.0355 393.301C88.4474 393.936 88.6534 394.66 88.6534 395.474C88.6534 396.019 88.5492 396.554 88.3409 397.08C88.1326 397.605 87.7656 398.187 87.2401 398.827C86.7192 399.466 85.9877 400.24 85.0455 401.149L82.5384 403.699V403.798H88.8736V406H78.902ZM92.9361 404.253C92.5052 404.253 92.1359 404.101 91.8281 403.798C91.5204 403.491 91.3688 403.121 91.3736 402.69C91.3688 402.264 91.5204 401.9 91.8281 401.597C92.1359 401.294 92.5052 401.142 92.9361 401.142C93.3527 401.142 93.715 401.294 94.0227 401.597C94.3352 401.9 94.4938 402.264 94.4986 402.69C94.4938 402.979 94.4181 403.242 94.2713 403.479C94.1293 403.715 93.9399 403.905 93.7031 404.047C93.4711 404.184 93.2154 404.253 92.9361 404.253ZM92.9361 397.044C92.5052 397.044 92.1359 396.893 91.8281 396.589C91.5204 396.282 91.3688 395.912 91.3736 395.482C91.3688 395.055 91.5204 394.691 91.8281 394.388C92.1359 394.08 92.5052 393.926 92.9361 393.926C93.3527 393.926 93.715 394.08 94.0227 394.388C94.3352 394.691 94.4938 395.055 94.4986 395.482C94.4938 395.766 94.4181 396.026 94.2713 396.263C94.1293 396.5 93.9399 396.689 93.7031 396.831C93.4711 396.973 93.2154 397.044 92.9361 397.044ZM102.345 406.199C101.322 406.199 100.413 406.024 99.6175 405.673C98.8268 405.323 98.2018 404.835 97.7425 404.21C97.2833 403.585 97.0394 402.863 97.011 402.044H99.6815C99.7051 402.437 99.8353 402.78 100.072 403.074C100.309 403.363 100.624 403.588 101.017 403.749C101.41 403.91 101.85 403.99 102.338 403.99C102.859 403.99 103.32 403.9 103.723 403.72C104.125 403.536 104.44 403.28 104.667 402.953C104.895 402.626 105.006 402.25 105.001 401.824C105.006 401.384 104.892 400.995 104.66 400.659C104.428 400.323 104.092 400.06 103.652 399.871C103.216 399.681 102.69 399.587 102.075 399.587H100.789V397.555H102.075C102.582 397.555 103.024 397.468 103.403 397.293C103.787 397.117 104.087 396.871 104.305 396.554C104.523 396.232 104.629 395.86 104.625 395.439C104.629 395.027 104.537 394.67 104.348 394.366C104.163 394.059 103.9 393.82 103.559 393.649C103.223 393.479 102.828 393.393 102.373 393.393C101.928 393.393 101.516 393.474 101.137 393.635C100.759 393.796 100.453 394.026 100.221 394.324C99.9892 394.617 99.8661 394.968 99.8519 395.375H97.3164C97.3353 394.561 97.5697 393.846 98.0195 393.23C98.4741 392.61 99.0801 392.127 99.8377 391.781C100.595 391.431 101.445 391.256 102.387 391.256C103.358 391.256 104.201 391.438 104.916 391.803C105.636 392.162 106.192 392.648 106.585 393.259C106.978 393.869 107.174 394.544 107.174 395.283C107.179 396.102 106.938 396.788 106.45 397.342C105.967 397.896 105.333 398.259 104.547 398.429V398.543C105.569 398.685 106.353 399.063 106.897 399.679C107.447 400.29 107.719 401.05 107.714 401.959C107.714 402.773 107.482 403.502 107.018 404.146C106.559 404.786 105.924 405.287 105.115 405.652C104.31 406.017 103.386 406.199 102.345 406.199ZM115.528 406.277C114.359 406.277 113.355 405.981 112.517 405.389C111.684 404.793 111.042 403.933 110.592 402.811C110.147 401.684 109.925 400.328 109.925 398.741C109.929 397.155 110.154 395.806 110.599 394.693C111.049 393.576 111.691 392.723 112.524 392.136C113.362 391.549 114.364 391.256 115.528 391.256C116.693 391.256 117.695 391.549 118.533 392.136C119.371 392.723 120.012 393.576 120.457 394.693C120.907 395.811 121.132 397.16 121.132 398.741C121.132 400.332 120.907 401.691 120.457 402.818C120.012 403.94 119.371 404.797 118.533 405.389C117.699 405.981 116.698 406.277 115.528 406.277ZM115.528 404.054C116.438 404.054 117.155 403.607 117.68 402.712C118.211 401.812 118.476 400.489 118.476 398.741C118.476 397.586 118.355 396.616 118.114 395.83C117.872 395.044 117.531 394.452 117.091 394.054C116.651 393.652 116.13 393.45 115.528 393.45C114.624 393.45 113.909 393.9 113.384 394.8C112.858 395.695 112.593 397.009 112.588 398.741C112.583 399.902 112.699 400.877 112.936 401.668C113.178 402.458 113.518 403.055 113.959 403.457C114.399 403.855 114.922 404.054 115.528 404.054ZM128.595 406V391.455H134.049C135.167 391.455 136.104 391.663 136.862 392.08C137.624 392.496 138.199 393.069 138.588 393.798C138.981 394.523 139.177 395.347 139.177 396.27C139.177 397.203 138.981 398.031 138.588 398.756C138.195 399.48 137.615 400.051 136.848 400.467C136.081 400.879 135.136 401.085 134.014 401.085H130.399V398.919H133.659C134.312 398.919 134.847 398.805 135.264 398.578C135.681 398.351 135.988 398.038 136.187 397.641C136.391 397.243 136.493 396.786 136.493 396.27C136.493 395.754 136.391 395.299 136.187 394.906C135.988 394.513 135.678 394.208 135.257 393.99C134.84 393.768 134.303 393.656 133.645 393.656H131.23V406H128.595ZM141.466 391.455H144.69L149.009 401.994H149.179L153.497 391.455H156.722V406H154.193V396.007H154.058L150.038 405.957H148.149L144.129 395.986H143.994V406H141.466V391.455ZM171.05 397.669V399.786H164.502V397.669H171.05ZM184.603 391.455V406H181.968V394.018H181.883L178.481 396.192V393.777L182.096 391.455H184.603ZM193.353 406.199C192.406 406.199 191.559 406.021 190.811 405.666C190.063 405.306 189.468 404.814 189.028 404.189C188.592 403.564 188.36 402.849 188.332 402.044H190.889C190.936 402.641 191.194 403.128 191.663 403.507C192.132 403.881 192.695 404.068 193.353 404.068C193.869 404.068 194.329 403.95 194.731 403.713C195.134 403.476 195.451 403.147 195.683 402.726C195.915 402.304 196.029 401.824 196.024 401.284C196.029 400.735 195.913 400.247 195.676 399.821C195.439 399.395 195.115 399.061 194.703 398.82C194.291 398.573 193.817 398.45 193.282 398.45C192.847 398.446 192.418 398.526 191.997 398.692C191.575 398.857 191.242 399.075 190.995 399.345L188.616 398.955L189.376 391.455H197.814V393.656H191.556L191.137 397.513H191.223C191.493 397.196 191.874 396.933 192.366 396.724C192.859 396.511 193.398 396.405 193.985 396.405C194.866 396.405 195.652 396.613 196.343 397.03C197.035 397.442 197.579 398.01 197.977 398.734C198.375 399.459 198.574 400.287 198.574 401.22C198.574 402.181 198.351 403.038 197.906 403.791C197.466 404.539 196.852 405.129 196.066 405.56C195.285 405.986 194.381 406.199 193.353 406.199ZM202.565 404.253C202.134 404.253 201.765 404.101 201.457 403.798C201.149 403.491 200.998 403.121 201.002 402.69C200.998 402.264 201.149 401.9 201.457 401.597C201.765 401.294 202.134 401.142 202.565 401.142C202.982 401.142 203.344 401.294 203.652 401.597C203.964 401.9 204.123 402.264 204.127 402.69C204.123 402.979 204.047 403.242 203.9 403.479C203.758 403.715 203.569 403.905 203.332 404.047C203.1 404.184 202.844 404.253 202.565 404.253ZM202.565 397.044C202.134 397.044 201.765 396.893 201.457 396.589C201.149 396.282 200.998 395.912 201.002 395.482C200.998 395.055 201.149 394.691 201.457 394.388C201.765 394.08 202.134 393.926 202.565 393.926C202.982 393.926 203.344 394.08 203.652 394.388C203.964 394.691 204.123 395.055 204.127 395.482C204.123 395.766 204.047 396.026 203.9 396.263C203.758 396.5 203.569 396.689 203.332 396.831C203.1 396.973 202.844 397.044 202.565 397.044ZM212.13 406.277C210.96 406.277 209.957 405.981 209.119 405.389C208.285 404.793 207.644 403.933 207.194 402.811C206.749 401.684 206.526 400.328 206.526 398.741C206.531 397.155 206.756 395.806 207.201 394.693C207.651 393.576 208.292 392.723 209.126 392.136C209.964 391.549 210.965 391.256 212.13 391.256C213.295 391.256 214.296 391.549 215.134 392.136C215.972 392.723 216.614 393.576 217.059 394.693C217.509 395.811 217.734 397.16 217.734 398.741C217.734 400.332 217.509 401.691 217.059 402.818C216.614 403.94 215.972 404.797 215.134 405.389C214.301 405.981 213.299 406.277 212.13 406.277ZM212.13 404.054C213.039 404.054 213.756 403.607 214.282 402.712C214.812 401.812 215.077 400.489 215.077 398.741C215.077 397.586 214.957 396.616 214.715 395.83C214.474 395.044 214.133 394.452 213.692 394.054C213.252 393.652 212.731 393.45 212.13 393.45C211.226 393.45 210.511 393.9 209.985 394.8C209.46 395.695 209.194 397.009 209.19 398.741C209.185 399.902 209.301 400.877 209.538 401.668C209.779 402.458 210.12 403.055 210.56 403.457C211.001 403.855 211.524 404.054 212.13 404.054ZM225.47 406.277C224.3 406.277 223.297 405.981 222.458 405.389C221.625 404.793 220.984 403.933 220.534 402.811C220.089 401.684 219.866 400.328 219.866 398.741C219.871 397.155 220.096 395.806 220.541 394.693C220.991 393.576 221.632 392.723 222.466 392.136C223.304 391.549 224.305 391.256 225.47 391.256C226.635 391.256 227.636 391.549 228.474 392.136C229.312 392.723 229.954 393.576 230.399 394.693C230.849 395.811 231.074 397.16 231.074 398.741C231.074 400.332 230.849 401.691 230.399 402.818C229.954 403.94 229.312 404.797 228.474 405.389C227.641 405.981 226.639 406.277 225.47 406.277ZM225.47 404.054C226.379 404.054 227.096 403.607 227.622 402.712C228.152 401.812 228.417 400.489 228.417 398.741C228.417 397.586 228.297 396.616 228.055 395.83C227.814 395.044 227.473 394.452 227.032 394.054C226.592 393.652 226.071 393.45 225.47 393.45C224.565 393.45 223.85 393.9 223.325 394.8C222.799 395.695 222.534 397.009 222.529 398.741C222.525 399.902 222.641 400.877 222.877 401.668C223.119 402.458 223.46 403.055 223.9 403.457C224.341 403.855 224.864 404.054 225.47 404.054ZM238.536 406V391.455H243.991C245.108 391.455 246.046 391.663 246.803 392.08C247.566 392.496 248.141 393.069 248.529 393.798C248.922 394.523 249.119 395.347 249.119 396.27C249.119 397.203 248.922 398.031 248.529 398.756C248.136 399.48 247.556 400.051 246.789 400.467C246.022 400.879 245.077 401.085 243.955 401.085H240.34V398.919H243.6C244.254 398.919 244.789 398.805 245.205 398.578C245.622 398.351 245.93 398.038 246.129 397.641C246.332 397.243 246.434 396.786 246.434 396.27C246.434 395.754 246.332 395.299 246.129 394.906C245.93 394.513 245.62 394.208 245.198 393.99C244.781 393.768 244.244 393.656 243.586 393.656H241.171V406H238.536ZM251.407 391.455H254.632L258.95 401.994H259.12L263.439 391.455H266.663V406H264.135V396.007H264L259.98 405.957H258.091L254.071 395.986H253.936V406H251.407V391.455Z" fill="black" fill-opacity="0.5"/>
<path d="M75.2088 674.455V689H72.5739V677.018H72.4886L69.0866 679.192V676.777L72.7017 674.455H75.2088ZM83.9588 689.199C83.0118 689.199 82.1643 689.021 81.4162 688.666C80.6681 688.306 80.0739 687.814 79.6335 687.189C79.1979 686.564 78.9659 685.849 78.9375 685.044H81.4943C81.5417 685.641 81.7997 686.128 82.2685 686.507C82.7372 686.881 83.3007 687.068 83.9588 687.068C84.4749 687.068 84.9342 686.95 85.3366 686.713C85.7391 686.476 86.0563 686.147 86.2884 685.726C86.5204 685.304 86.634 684.824 86.6293 684.284C86.634 683.735 86.518 683.247 86.2812 682.821C86.0445 682.395 85.7202 682.061 85.3082 681.82C84.8963 681.573 84.4228 681.45 83.8878 681.45C83.4522 681.446 83.0237 681.526 82.6023 681.692C82.1809 681.857 81.8471 682.075 81.6009 682.345L79.2216 681.955L79.9815 674.455H88.419V676.656H82.1619L81.7429 680.513H81.8281C82.098 680.196 82.4792 679.933 82.9716 679.724C83.464 679.511 84.0038 679.405 84.5909 679.405C85.4716 679.405 86.2576 679.613 86.9489 680.03C87.6402 680.442 88.1847 681.01 88.5824 681.734C88.9801 682.459 89.179 683.287 89.179 684.22C89.179 685.181 88.9564 686.038 88.5114 686.791C88.071 687.539 87.4579 688.129 86.6719 688.56C85.8906 688.986 84.9863 689.199 83.9588 689.199ZM93.1705 687.253C92.7396 687.253 92.3703 687.101 92.0625 686.798C91.7547 686.491 91.6032 686.121 91.608 685.69C91.6032 685.264 91.7547 684.9 92.0625 684.597C92.3703 684.294 92.7396 684.142 93.1705 684.142C93.5871 684.142 93.9493 684.294 94.2571 684.597C94.5696 684.9 94.7282 685.264 94.733 685.69C94.7282 685.979 94.6525 686.242 94.5057 686.479C94.3636 686.715 94.1742 686.905 93.9375 687.047C93.7055 687.184 93.4498 687.253 93.1705 687.253ZM93.1705 680.044C92.7396 680.044 92.3703 679.893 92.0625 679.589C91.7547 679.282 91.6032 678.912 91.608 678.482C91.6032 678.055 91.7547 677.691 92.0625 677.388C92.3703 677.08 92.7396 676.926 93.1705 676.926C93.5871 676.926 93.9493 677.08 94.2571 677.388C94.5696 677.691 94.7282 678.055 94.733 678.482C94.7282 678.766 94.6525 679.026 94.5057 679.263C94.3636 679.5 94.1742 679.689 93.9375 679.831C93.7055 679.973 93.4498 680.044 93.1705 680.044ZM102.735 689.277C101.566 689.277 100.562 688.981 99.7241 688.389C98.8907 687.793 98.2492 686.933 97.7994 685.811C97.3543 684.684 97.1317 683.328 97.1317 681.741C97.1365 680.155 97.3614 678.806 97.8065 677.693C98.2563 676.576 98.8978 675.723 99.7312 675.136C100.569 674.549 101.571 674.256 102.735 674.256C103.9 674.256 104.902 674.549 105.74 675.136C106.578 675.723 107.219 676.576 107.664 677.693C108.114 678.811 108.339 680.16 108.339 681.741C108.339 683.332 108.114 684.691 107.664 685.818C107.219 686.94 106.578 687.797 105.74 688.389C104.906 688.981 103.905 689.277 102.735 689.277ZM102.735 687.054C103.645 687.054 104.362 686.607 104.887 685.712C105.418 684.812 105.683 683.489 105.683 681.741C105.683 680.586 105.562 679.616 105.321 678.83C105.079 678.044 104.738 677.452 104.298 677.054C103.858 676.652 103.337 676.45 102.735 676.45C101.831 676.45 101.116 676.9 100.591 677.8C100.065 678.695 99.7998 680.009 99.7951 681.741C99.7904 682.902 99.9064 683.877 100.143 684.668C100.385 685.458 100.725 686.055 101.166 686.457C101.606 686.855 102.129 687.054 102.735 687.054ZM116.075 689.277C114.906 689.277 113.902 688.981 113.064 688.389C112.231 687.793 111.589 686.933 111.139 685.811C110.694 684.684 110.472 683.328 110.472 681.741C110.476 680.155 110.701 678.806 111.146 677.693C111.596 676.576 112.238 675.723 113.071 675.136C113.909 674.549 114.911 674.256 116.075 674.256C117.24 674.256 118.241 674.549 119.08 675.136C119.918 675.723 120.559 676.576 121.004 677.693C121.454 678.811 121.679 680.16 121.679 681.741C121.679 683.332 121.454 684.691 121.004 685.818C120.559 686.94 119.918 687.797 119.08 688.389C118.246 688.981 117.245 689.277 116.075 689.277ZM116.075 687.054C116.984 687.054 117.702 686.607 118.227 685.712C118.758 684.812 119.023 683.489 119.023 681.741C119.023 680.586 118.902 679.616 118.661 678.83C118.419 678.044 118.078 677.452 117.638 677.054C117.197 676.652 116.677 676.45 116.075 676.45C115.171 676.45 114.456 676.9 113.93 677.8C113.405 678.695 113.14 680.009 113.135 681.741C113.13 682.902 113.246 683.877 113.483 684.668C113.724 685.458 114.065 686.055 114.506 686.457C114.946 686.855 115.469 687.054 116.075 687.054ZM129.142 689V674.455H134.596C135.714 674.455 136.651 674.663 137.409 675.08C138.171 675.496 138.746 676.069 139.135 676.798C139.528 677.523 139.724 678.347 139.724 679.27C139.724 680.203 139.528 681.031 139.135 681.756C138.742 682.48 138.162 683.051 137.395 683.467C136.627 683.879 135.683 684.085 134.561 684.085H130.946V681.919H134.206C134.859 681.919 135.394 681.805 135.811 681.578C136.227 681.351 136.535 681.038 136.734 680.641C136.938 680.243 137.039 679.786 137.039 679.27C137.039 678.754 136.938 678.299 136.734 677.906C136.535 677.513 136.225 677.208 135.804 676.99C135.387 676.768 134.85 676.656 134.191 676.656H131.777V689H129.142ZM142.013 674.455H145.237L149.555 684.994H149.726L154.044 674.455H157.268V689H154.74V679.007H154.605L150.585 688.957H148.696L144.676 678.986H144.541V689H142.013V674.455ZM171.597 680.669V682.786H165.049V680.669H171.597ZM185.15 674.455V689H182.515V677.018H182.43L179.028 679.192V676.777L182.643 674.455H185.15ZM194.17 689.199C193.474 689.194 192.795 689.073 192.132 688.837C191.469 688.595 190.872 688.205 190.342 687.665C189.812 687.12 189.39 686.398 189.078 685.499C188.765 684.594 188.611 683.474 188.616 682.139C188.616 680.894 188.749 679.784 189.014 678.808C189.279 677.833 189.66 677.009 190.157 676.337C190.654 675.66 191.253 675.143 191.954 674.788C192.66 674.433 193.448 674.256 194.319 674.256C195.233 674.256 196.043 674.436 196.748 674.795C197.458 675.155 198.031 675.648 198.467 676.273C198.903 676.893 199.172 677.594 199.277 678.375H196.684C196.552 677.816 196.279 677.371 195.868 677.04C195.46 676.704 194.944 676.536 194.319 676.536C193.311 676.536 192.534 676.973 191.99 677.849C191.45 678.725 191.178 679.928 191.173 681.457H191.272C191.504 681.041 191.805 680.683 192.174 680.385C192.544 680.087 192.96 679.857 193.424 679.696C193.893 679.53 194.388 679.447 194.909 679.447C195.761 679.447 196.526 679.651 197.203 680.058C197.885 680.465 198.424 681.027 198.822 681.741C199.22 682.452 199.416 683.266 199.412 684.185C199.416 685.141 199.199 686 198.758 686.763C198.318 687.52 197.705 688.117 196.919 688.553C196.133 688.988 195.217 689.204 194.17 689.199ZM194.156 687.068C194.672 687.068 195.134 686.943 195.541 686.692C195.948 686.441 196.27 686.102 196.507 685.676C196.743 685.25 196.859 684.772 196.855 684.241C196.859 683.721 196.746 683.25 196.514 682.828C196.287 682.407 195.972 682.073 195.569 681.827C195.167 681.58 194.708 681.457 194.191 681.457C193.808 681.457 193.45 681.531 193.119 681.678C192.788 681.824 192.499 682.028 192.252 682.288C192.006 682.544 191.812 682.842 191.67 683.183C191.533 683.519 191.462 683.879 191.457 684.263C191.462 684.769 191.58 685.236 191.812 685.662C192.044 686.088 192.364 686.429 192.771 686.685C193.178 686.94 193.64 687.068 194.156 687.068ZM203.424 687.253C202.993 687.253 202.624 687.101 202.316 686.798C202.009 686.491 201.857 686.121 201.862 685.69C201.857 685.264 202.009 684.9 202.316 684.597C202.624 684.294 202.993 684.142 203.424 684.142C203.841 684.142 204.203 684.294 204.511 684.597C204.824 684.9 204.982 685.264 204.987 685.69C204.982 685.979 204.906 686.242 204.76 686.479C204.618 686.715 204.428 686.905 204.191 687.047C203.959 687.184 203.704 687.253 203.424 687.253ZM203.424 680.044C202.993 680.044 202.624 679.893 202.316 679.589C202.009 679.282 201.857 678.912 201.862 678.482C201.857 678.055 202.009 677.691 202.316 677.388C202.624 677.08 202.993 676.926 203.424 676.926C203.841 676.926 204.203 677.08 204.511 677.388C204.824 677.691 204.982 678.055 204.987 678.482C204.982 678.766 204.906 679.026 204.76 679.263C204.618 679.5 204.428 679.689 204.191 679.831C203.959 679.973 203.704 680.044 203.424 680.044ZM212.833 689.199C211.81 689.199 210.901 689.024 210.106 688.673C209.315 688.323 208.69 687.835 208.231 687.21C207.772 686.585 207.528 685.863 207.499 685.044H210.17C210.193 685.437 210.324 685.78 210.56 686.074C210.797 686.363 211.112 686.588 211.505 686.749C211.898 686.91 212.338 686.99 212.826 686.99C213.347 686.99 213.808 686.9 214.211 686.72C214.613 686.536 214.928 686.28 215.156 685.953C215.383 685.626 215.494 685.25 215.489 684.824C215.494 684.384 215.38 683.995 215.148 683.659C214.916 683.323 214.58 683.06 214.14 682.871C213.704 682.681 213.179 682.587 212.563 682.587H211.278V680.555H212.563C213.07 680.555 213.513 680.468 213.891 680.293C214.275 680.117 214.576 679.871 214.793 679.554C215.011 679.232 215.118 678.86 215.113 678.439C215.118 678.027 215.025 677.67 214.836 677.366C214.651 677.059 214.388 676.82 214.048 676.649C213.711 676.479 213.316 676.393 212.862 676.393C212.416 676.393 212.004 676.474 211.626 676.635C211.247 676.796 210.942 677.026 210.71 677.324C210.478 677.617 210.354 677.968 210.34 678.375H207.805C207.824 677.561 208.058 676.846 208.508 676.23C208.962 675.61 209.568 675.127 210.326 674.781C211.084 674.431 211.933 674.256 212.876 674.256C213.846 674.256 214.689 674.438 215.404 674.803C216.124 675.162 216.68 675.648 217.073 676.259C217.466 676.869 217.663 677.544 217.663 678.283C217.667 679.102 217.426 679.788 216.938 680.342C216.455 680.896 215.821 681.259 215.035 681.429V681.543C216.058 681.685 216.841 682.063 217.386 682.679C217.935 683.29 218.207 684.05 218.202 684.959C218.202 685.773 217.97 686.502 217.506 687.146C217.047 687.786 216.413 688.287 215.603 688.652C214.798 689.017 213.875 689.199 212.833 689.199ZM226.017 689.277C224.847 689.277 223.843 688.981 223.005 688.389C222.172 687.793 221.53 686.933 221.081 685.811C220.636 684.684 220.413 683.328 220.413 681.741C220.418 680.155 220.643 678.806 221.088 677.693C221.538 676.576 222.179 675.723 223.012 675.136C223.85 674.549 224.852 674.256 226.017 674.256C227.181 674.256 228.183 674.549 229.021 675.136C229.859 675.723 230.501 676.576 230.946 677.693C231.395 678.811 231.62 680.16 231.62 681.741C231.62 683.332 231.395 684.691 230.946 685.818C230.501 686.94 229.859 687.797 229.021 688.389C228.188 688.981 227.186 689.277 226.017 689.277ZM226.017 687.054C226.926 687.054 227.643 686.607 228.169 685.712C228.699 684.812 228.964 683.489 228.964 681.741C228.964 680.586 228.843 679.616 228.602 678.83C228.36 678.044 228.02 677.452 227.579 677.054C227.139 676.652 226.618 676.45 226.017 676.45C225.112 676.45 224.397 676.9 223.872 677.8C223.346 678.695 223.081 680.009 223.076 681.741C223.072 682.902 223.188 683.877 223.424 684.668C223.666 685.458 224.007 686.055 224.447 686.457C224.887 686.855 225.411 687.054 226.017 687.054ZM239.083 689V674.455H244.538C245.655 674.455 246.593 674.663 247.35 675.08C248.112 675.496 248.688 676.069 249.076 676.798C249.469 677.523 249.665 678.347 249.665 679.27C249.665 680.203 249.469 681.031 249.076 681.756C248.683 682.48 248.103 683.051 247.336 683.467C246.569 683.879 245.624 684.085 244.502 684.085H240.887V681.919H244.147C244.8 681.919 245.335 681.805 245.752 681.578C246.169 681.351 246.477 681.038 246.675 680.641C246.879 680.243 246.981 679.786 246.981 679.27C246.981 678.754 246.879 678.299 246.675 677.906C246.477 677.513 246.166 677.208 245.745 676.99C245.328 676.768 244.791 676.656 244.133 676.656H241.718V689H239.083ZM251.954 674.455H255.179L259.497 684.994H259.667L263.985 674.455H267.21V689H264.681V679.007H264.547L260.527 688.957H258.637L254.618 678.986H254.483V689H251.954V674.455Z" fill="black" fill-opacity="0.5"/>
<path d="M72.2088 968.455V983H69.5739V971.018H69.4886L66.0866 973.192V970.777L69.7017 968.455H72.2088ZM81.2287 983.199C80.5327 983.194 79.8532 983.073 79.1903 982.837C78.5275 982.595 77.9309 982.205 77.4006 981.665C76.8703 981.12 76.4489 980.398 76.1364 979.499C75.8239 978.594 75.67 977.474 75.6747 976.139C75.6747 974.894 75.8073 973.784 76.0724 972.808C76.3376 971.833 76.7188 971.009 77.2159 970.337C77.7131 969.66 78.312 969.143 79.0128 968.788C79.7183 968.433 80.5066 968.256 81.3778 968.256C82.2917 968.256 83.1013 968.436 83.8068 968.795C84.517 969.155 85.09 969.648 85.5256 970.273C85.9612 970.893 86.2311 971.594 86.3352 972.375H83.7429C83.6103 971.816 83.3381 971.371 82.9261 971.04C82.5189 970.704 82.0028 970.536 81.3778 970.536C80.3693 970.536 79.5928 970.973 79.0483 971.849C78.5085 972.725 78.2363 973.928 78.2315 975.457H78.331C78.563 975.041 78.8636 974.683 79.233 974.385C79.6023 974.087 80.0189 973.857 80.483 973.696C80.9517 973.53 81.4465 973.447 81.9673 973.447C82.8196 973.447 83.5843 973.651 84.2614 974.058C84.9432 974.465 85.483 975.027 85.8807 975.741C86.2784 976.452 86.4749 977.266 86.4702 978.185C86.4749 979.141 86.2571 980 85.8168 980.763C85.3764 981.52 84.7633 982.117 83.9773 982.553C83.1913 982.988 82.2751 983.204 81.2287 983.199ZM81.2145 981.068C81.7306 981.068 82.1922 980.943 82.5994 980.692C83.0066 980.441 83.3286 980.102 83.5653 979.676C83.8021 979.25 83.9181 978.772 83.9134 978.241C83.9181 977.721 83.8045 977.25 83.5724 976.828C83.3452 976.407 83.0303 976.073 82.6278 975.827C82.2254 975.58 81.7661 975.457 81.25 975.457C80.8665 975.457 80.509 975.531 80.1776 975.678C79.8461 975.824 79.5573 976.028 79.3111 976.288C79.0649 976.544 78.8707 976.842 78.7287 977.183C78.5914 977.519 78.5204 977.879 78.5156 978.263C78.5204 978.769 78.6387 979.236 78.8707 979.662C79.1027 980.088 79.4223 980.429 79.8295 980.685C80.2367 980.94 80.6984 981.068 81.2145 981.068ZM90.483 981.253C90.0521 981.253 89.6828 981.101 89.375 980.798C89.0672 980.491 88.9157 980.121 88.9205 979.69C88.9157 979.264 89.0672 978.9 89.375 978.597C89.6828 978.294 90.0521 978.142 90.483 978.142C90.8996 978.142 91.2618 978.294 91.5696 978.597C91.8821 978.9 92.0407 979.264 92.0455 979.69C92.0407 979.979 91.965 980.242 91.8182 980.479C91.6761 980.715 91.4867 980.905 91.25 981.047C91.018 981.184 90.7623 981.253 90.483 981.253ZM90.483 974.044C90.0521 974.044 89.6828 973.893 89.375 973.589C89.0672 973.282 88.9157 972.912 88.9205 972.482C88.9157 972.055 89.0672 971.691 89.375 971.388C89.6828 971.08 90.0521 970.926 90.483 970.926C90.8996 970.926 91.2618 971.08 91.5696 971.388C91.8821 971.691 92.0407 972.055 92.0455 972.482C92.0407 972.766 91.965 973.026 91.8182 973.263C91.6761 973.5 91.4867 973.689 91.25 973.831C91.018 973.973 90.7623 974.044 90.483 974.044ZM99.8917 983.199C98.869 983.199 97.9599 983.024 97.1644 982.673C96.3737 982.323 95.7487 981.835 95.2894 981.21C94.8301 980.585 94.5863 979.863 94.5579 979.044H97.2283C97.252 979.437 97.3822 979.78 97.619 980.074C97.8557 980.363 98.1706 980.588 98.5636 980.749C98.9566 980.91 99.3969 980.99 99.8846 980.99C100.405 980.99 100.867 980.9 101.27 980.72C101.672 980.536 101.987 980.28 102.214 979.953C102.441 979.626 102.553 979.25 102.548 978.824C102.553 978.384 102.439 977.995 102.207 977.659C101.975 977.323 101.639 977.06 101.199 976.871C100.763 976.681 100.237 976.587 99.6218 976.587H98.3363V974.555H99.6218C100.128 974.555 100.571 974.468 100.95 974.293C101.333 974.117 101.634 973.871 101.852 973.554C102.07 973.232 102.176 972.86 102.172 972.439C102.176 972.027 102.084 971.67 101.895 971.366C101.71 971.059 101.447 970.82 101.106 970.649C100.77 970.479 100.375 970.393 99.9201 970.393C99.475 970.393 99.0631 970.474 98.6843 970.635C98.3055 970.796 98.0001 971.026 97.7681 971.324C97.5361 971.617 97.413 971.968 97.3988 972.375H94.8633C94.8822 971.561 95.1166 970.846 95.5664 970.23C96.021 969.61 96.627 969.127 97.3846 968.781C98.1422 968.431 98.9921 968.256 99.9343 968.256C100.905 968.256 101.748 968.438 102.463 968.803C103.182 969.162 103.739 969.648 104.132 970.259C104.525 970.869 104.721 971.544 104.721 972.283C104.726 973.102 104.484 973.788 103.997 974.342C103.514 974.896 102.879 975.259 102.093 975.429V975.543C103.116 975.685 103.9 976.063 104.444 976.679C104.993 977.29 105.266 978.05 105.261 978.959C105.261 979.773 105.029 980.502 104.565 981.146C104.106 981.786 103.471 982.287 102.662 982.652C101.857 983.017 100.933 983.199 99.8917 983.199ZM113.075 983.277C111.906 983.277 110.902 982.981 110.064 982.389C109.231 981.793 108.589 980.933 108.139 979.811C107.694 978.684 107.472 977.328 107.472 975.741C107.476 974.155 107.701 972.806 108.146 971.693C108.596 970.576 109.238 969.723 110.071 969.136C110.909 968.549 111.911 968.256 113.075 968.256C114.24 968.256 115.241 968.549 116.08 969.136C116.918 969.723 117.559 970.576 118.004 971.693C118.454 972.811 118.679 974.16 118.679 975.741C118.679 977.332 118.454 978.691 118.004 979.818C117.559 980.94 116.918 981.797 116.08 982.389C115.246 982.981 114.245 983.277 113.075 983.277ZM113.075 981.054C113.984 981.054 114.702 980.607 115.227 979.712C115.758 978.812 116.023 977.489 116.023 975.741C116.023 974.586 115.902 973.616 115.661 972.83C115.419 972.044 115.078 971.452 114.638 971.054C114.197 970.652 113.677 970.45 113.075 970.45C112.171 970.45 111.456 970.9 110.93 971.8C110.405 972.695 110.14 974.009 110.135 975.741C110.13 976.902 110.246 977.877 110.483 978.668C110.724 979.458 111.065 980.055 111.506 980.457C111.946 980.855 112.469 981.054 113.075 981.054ZM126.142 983V968.455H131.596C132.714 968.455 133.651 968.663 134.409 969.08C135.171 969.496 135.746 970.069 136.135 970.798C136.528 971.523 136.724 972.347 136.724 973.27C136.724 974.203 136.528 975.031 136.135 975.756C135.742 976.48 135.162 977.051 134.395 977.467C133.627 977.879 132.683 978.085 131.561 978.085H127.946V975.919H131.206C131.859 975.919 132.394 975.805 132.811 975.578C133.227 975.351 133.535 975.038 133.734 974.641C133.938 974.243 134.039 973.786 134.039 973.27C134.039 972.754 133.938 972.299 133.734 971.906C133.535 971.513 133.225 971.208 132.804 970.99C132.387 970.768 131.85 970.656 131.191 970.656H128.777V983H126.142ZM139.013 968.455H142.237L146.555 978.994H146.726L151.044 968.455H154.268V983H151.74V973.007H151.605L147.585 982.957H145.696L141.676 972.986H141.541V983H139.013V968.455ZM168.597 974.669V976.786H162.049V974.669H168.597ZM182.15 968.455V983H179.515V971.018H179.43L176.028 973.192V970.777L179.643 968.455H182.15ZM190.893 968.256C191.589 968.26 192.266 968.384 192.924 968.625C193.587 968.862 194.184 969.25 194.714 969.79C195.244 970.325 195.666 971.042 195.978 971.942C196.291 972.841 196.447 973.954 196.447 975.28C196.452 976.53 196.319 977.647 196.049 978.632C195.784 979.612 195.403 980.441 194.906 981.118C194.409 981.795 193.81 982.311 193.109 982.666C192.408 983.021 191.62 983.199 190.744 983.199C189.825 983.199 189.011 983.019 188.301 982.659C187.595 982.299 187.025 981.807 186.589 981.182C186.154 980.557 185.886 979.842 185.787 979.037H188.379C188.511 979.615 188.781 980.074 189.189 980.415C189.6 980.751 190.119 980.919 190.744 980.919C191.752 980.919 192.529 980.481 193.074 979.605C193.618 978.729 193.89 977.512 193.89 975.955H193.791C193.559 976.371 193.258 976.731 192.889 977.034C192.52 977.332 192.1 977.562 191.632 977.723C191.168 977.884 190.675 977.964 190.154 977.964C189.302 977.964 188.535 977.761 187.853 977.354C187.176 976.946 186.639 976.388 186.241 975.678C185.848 974.967 185.649 974.155 185.645 973.241C185.645 972.295 185.862 971.445 186.298 970.692C186.738 969.934 187.351 969.338 188.137 968.902C188.923 968.462 189.842 968.246 190.893 968.256ZM190.9 970.386C190.389 970.386 189.927 970.512 189.515 970.763C189.108 971.009 188.786 971.345 188.549 971.771C188.317 972.193 188.201 972.664 188.201 973.185C188.206 973.701 188.322 974.17 188.549 974.591C188.781 975.012 189.096 975.346 189.494 975.592C189.896 975.839 190.356 975.962 190.872 975.962C191.255 975.962 191.613 975.888 191.944 975.741C192.276 975.595 192.565 975.391 192.811 975.131C193.062 974.866 193.256 974.565 193.393 974.229C193.535 973.893 193.604 973.537 193.599 973.163C193.599 972.666 193.481 972.207 193.244 971.786C193.012 971.364 192.692 971.026 192.285 970.77C191.883 970.514 191.421 970.386 190.9 970.386ZM200.424 981.253C199.993 981.253 199.624 981.101 199.316 980.798C199.009 980.491 198.857 980.121 198.862 979.69C198.857 979.264 199.009 978.9 199.316 978.597C199.624 978.294 199.993 978.142 200.424 978.142C200.841 978.142 201.203 978.294 201.511 978.597C201.824 978.9 201.982 979.264 201.987 979.69C201.982 979.979 201.906 980.242 201.76 980.479C201.618 980.715 201.428 980.905 201.191 981.047C200.959 981.184 200.704 981.253 200.424 981.253ZM200.424 974.044C199.993 974.044 199.624 973.893 199.316 973.589C199.009 973.282 198.857 972.912 198.862 972.482C198.857 972.055 199.009 971.691 199.316 971.388C199.624 971.08 199.993 970.926 200.424 970.926C200.841 970.926 201.203 971.08 201.511 971.388C201.824 971.691 201.982 972.055 201.987 972.482C201.982 972.766 201.906 973.026 201.76 973.263C201.618 973.5 201.428 973.689 201.191 973.831C200.959 973.973 200.704 974.044 200.424 974.044ZM209.833 983.199C208.81 983.199 207.901 983.024 207.106 982.673C206.315 982.323 205.69 981.835 205.231 981.21C204.772 980.585 204.528 979.863 204.499 979.044H207.17C207.193 979.437 207.324 979.78 207.56 980.074C207.797 980.363 208.112 980.588 208.505 980.749C208.898 980.91 209.338 980.99 209.826 980.99C210.347 980.99 210.808 980.9 211.211 980.72C211.613 980.536 211.928 980.28 212.156 979.953C212.383 979.626 212.494 979.25 212.489 978.824C212.494 978.384 212.38 977.995 212.148 977.659C211.916 977.323 211.58 977.06 211.14 976.871C210.704 976.681 210.179 976.587 209.563 976.587H208.278V974.555H209.563C210.07 974.555 210.513 974.468 210.891 974.293C211.275 974.117 211.576 973.871 211.793 973.554C212.011 973.232 212.118 972.86 212.113 972.439C212.118 972.027 212.025 971.67 211.836 971.366C211.651 971.059 211.388 970.82 211.048 970.649C210.711 970.479 210.316 970.393 209.862 970.393C209.416 970.393 209.004 970.474 208.626 970.635C208.247 970.796 207.942 971.026 207.71 971.324C207.478 971.617 207.354 971.968 207.34 972.375H204.805C204.824 971.561 205.058 970.846 205.508 970.23C205.962 969.61 206.568 969.127 207.326 968.781C208.084 968.431 208.933 968.256 209.876 968.256C210.846 968.256 211.689 968.438 212.404 968.803C213.124 969.162 213.68 969.648 214.073 970.259C214.466 970.869 214.663 971.544 214.663 972.283C214.667 973.102 214.426 973.788 213.938 974.342C213.455 974.896 212.821 975.259 212.035 975.429V975.543C213.058 975.685 213.841 976.063 214.386 976.679C214.935 977.29 215.207 978.05 215.202 978.959C215.202 979.773 214.97 980.502 214.506 981.146C214.047 981.786 213.413 982.287 212.603 982.652C211.798 983.017 210.875 983.199 209.833 983.199ZM223.017 983.277C221.847 983.277 220.843 982.981 220.005 982.389C219.172 981.793 218.53 980.933 218.081 979.811C217.636 978.684 217.413 977.328 217.413 975.741C217.418 974.155 217.643 972.806 218.088 971.693C218.538 970.576 219.179 969.723 220.012 969.136C220.85 968.549 221.852 968.256 223.017 968.256C224.181 968.256 225.183 968.549 226.021 969.136C226.859 969.723 227.501 970.576 227.946 971.693C228.395 972.811 228.62 974.16 228.62 975.741C228.62 977.332 228.395 978.691 227.946 979.818C227.501 980.94 226.859 981.797 226.021 982.389C225.188 982.981 224.186 983.277 223.017 983.277ZM223.017 981.054C223.926 981.054 224.643 980.607 225.169 979.712C225.699 978.812 225.964 977.489 225.964 975.741C225.964 974.586 225.843 973.616 225.602 972.83C225.36 972.044 225.02 971.452 224.579 971.054C224.139 970.652 223.618 970.45 223.017 970.45C222.112 970.45 221.397 970.9 220.872 971.8C220.346 972.695 220.081 974.009 220.076 975.741C220.072 976.902 220.188 977.877 220.424 978.668C220.666 979.458 221.007 980.055 221.447 980.457C221.887 980.855 222.411 981.054 223.017 981.054ZM236.083 983V968.455H241.538C242.655 968.455 243.593 968.663 244.35 969.08C245.112 969.496 245.688 970.069 246.076 970.798C246.469 971.523 246.665 972.347 246.665 973.27C246.665 974.203 246.469 975.031 246.076 975.756C245.683 976.48 245.103 977.051 244.336 977.467C243.569 977.879 242.624 978.085 241.502 978.085H237.887V975.919H241.147C241.8 975.919 242.335 975.805 242.752 975.578C243.169 975.351 243.477 975.038 243.675 974.641C243.879 974.243 243.981 973.786 243.981 973.27C243.981 972.754 243.879 972.299 243.675 971.906C243.477 971.513 243.166 971.208 242.745 970.99C242.328 970.768 241.791 970.656 241.133 970.656H238.718V983H236.083ZM248.954 968.455H252.179L256.497 978.994H256.667L260.985 968.455H264.21V983H261.681V973.007H261.547L257.527 982.957H255.637L251.618 972.986H251.483V983H248.954V968.455Z" fill="black" fill-opacity="0.5"/>
</svg>
