<svg xmlns="http://www.w3.org/2000/svg"  viewBox="0 0 48 48" width="96px" height="96px" baseProfile="basic"><linearGradient id="wGMO1a9UyFWnA6q4dvFL4a" x1="32.749" x2="56.09" y1="20.849" y2="44.19" gradientUnits="userSpaceOnUse"><stop offset="0" stop-color="#262626" stop-opacity="0"/><stop offset="1" stop-color="#262626" stop-opacity=".8"/></linearGradient><path fill="url(#wGMO1a9UyFWnA6q4dvFL4a)" d="M45,16.2l-10,7.5V40h7c1.657,0,3-1.343,3-3V16.2z"/><linearGradient id="wGMO1a9UyFWnA6q4dvFL4b" x1="-5.399" x2="26.746" y1="17.572" y2="49.718" gradientUnits="userSpaceOnUse"><stop offset="0" stop-color="#262626" stop-opacity="0"/><stop offset="1" stop-color="#262626" stop-opacity=".8"/></linearGradient><path fill="url(#wGMO1a9UyFWnA6q4dvFL4b)" d="M3,16.2l10,7.5V40H6c-1.657,0-3-1.343-3-3V16.2z"/><linearGradient id="wGMO1a9UyFWnA6q4dvFL4c" x1="11.789" x2="44.6" y1="5.239" y2="38.05" gradientUnits="userSpaceOnUse"><stop offset="0" stop-color="#262626" stop-opacity="0"/><stop offset="1" stop-color="#262626" stop-opacity=".8"/></linearGradient><polygon fill="url(#wGMO1a9UyFWnA6q4dvFL4c)" points="35,11.2 24,19.45 13,11.2 13,23.7 24,31.95 35,23.7"/><linearGradient id="wGMO1a9UyFWnA6q4dvFL4d" x1="1.499" x2="23.547" y1="7.199" y2="29.247" gradientUnits="userSpaceOnUse"><stop offset="0" stop-color="#262626" stop-opacity="0"/><stop offset="1" stop-color="#262626" stop-opacity=".8"/></linearGradient><path fill="url(#wGMO1a9UyFWnA6q4dvFL4d)" d="M3,12.298V16.2l10,7.5V11.2L9.876,8.859C9.132,8.301,8.228,8,7.298,8l0,0	C4.924,8,3,9.924,3,12.298z"/><linearGradient id="wGMO1a9UyFWnA6q4dvFL4e" x1="32.986" x2="47.252" y1="10.095" y2="24.361" gradientUnits="userSpaceOnUse"><stop offset="0" stop-color="#262626" stop-opacity="0"/><stop offset="1" stop-color="#262626" stop-opacity=".8"/></linearGradient><path fill="url(#wGMO1a9UyFWnA6q4dvFL4e)" d="M45,12.298V16.2l-10,7.5V11.2l3.124-2.341C38.868,8.301,39.772,8,40.702,8l0,0	C43.076,8,45,9.924,45,12.298z"/></svg>