<svg fill="#737373" xmlns="http://www.w3.org/2000/svg"  viewBox="0 0 48 48" width="96px" height="96px"><path d="M 21.541016 4.0957031 C 21.277323 4.0910623 21.009427 4.1178181 20.740234 4.1777344 L 20.740234 4.1757812 L 7.5234375 7.1132812 C 5.4728994 7.5691225 4 9.4069339 4 11.507812 L 4 36.492188 C 4 38.593573 5.4735774 40.431028 7.5234375 40.886719 L 20.740234 43.824219 L 20.740234 43.822266 C 22.893773 44.301643 25 42.611755 25 40.40625 L 25 7.59375 C 25 5.663933 23.386864 4.1281887 21.541016 4.0957031 z M 28 11.050781 L 28 22.189453 L 31.509766 24.669922 L 44.990234 15.369141 C 44.900234 12.969141 42.92 11.050781 40.5 11.050781 L 28 11.050781 z M 14.5 16.5 C 17.584 16.5 20 20.014 20 24.5 C 20 28.986 17.584 32.5 14.5 32.5 C 11.416 32.5 9 28.986 9 24.5 C 9 20.014 11.416 16.5 14.5 16.5 z M 45 19.009766 L 32.349609 27.730469 C 32.099609 27.910469 31.8 28 31.5 28 C 31.2 28 30.890859 27.910703 30.630859 27.720703 L 28 25.859375 L 28 38.050781 L 40.5 38.050781 C 42.98 38.050781 45 36.030781 45 33.550781 L 45 19.009766 z M 14.5 19.5 C 13.32 19.5 12 21.638 12 24.5 C 12 27.362 13.32 29.5 14.5 29.5 C 15.68 29.5 17 27.362 17 24.5 C 17 21.638 15.68 19.5 14.5 19.5 z"/></svg>